<?xml version="1.0" encoding="utf-8"?>
<!-- Generator: Adobe Illustrator 24.3.0, SVG Export Plug-In . SVG Version: 6.00 Build 0)  -->
<svg version="1.1" id="图层_1" xmlns="http://www.w3.org/2000/svg" xmlns:xlink="http://www.w3.org/1999/xlink" x="0px" y="0px"
	 viewBox="0 0 200 200" style="enable-background:new 0 0 200 200;" xml:space="preserve">
<style type="text/css">
	.st0{fill:#FFFFFF;}
</style>
<g>
	<g>
		<path class="st0" d="M187.48,94.73c-1.3-3.8-3.7-6.7-7.1-8.6L36.08,2.33c-3.5-2.1-7.2-2.7-11.1-2.1c-3.9,0.8-7.1,2.7-9.6,5.7
			c-2.6,3-3.9,6.5-3.9,10.5v167.2c0,4,1.3,7.6,3.9,10.6c2.5,2.9,5.7,4.8,9.6,5.5s7.6,0,11-1.9l144.3-83.4c3.5-2.1,5.9-4.9,7.2-8.7
			C188.88,102.03,188.88,98.33,187.48,94.73z"/>
	</g>
</g>
</svg>
