<?xml version="1.0" encoding="utf-8"?>
<!-- Generator: Adobe Illustrator 24.3.0, SVG Export Plug-In . SVG Version: 6.00 Build 0)  -->
<svg version="1.1" id="图层_1" focusable="false" xmlns="http://www.w3.org/2000/svg"
	xmlns:xlink="http://www.w3.org/1999/xlink" x="0px" y="0px" viewBox="0 0 512 512"
	style="enable-background:new 0 0 512 512;" xml:space="preserve">
	<path fill="currentColor" d="M256,352c53,0,96-43,96-96V96c0-53-43-96-96-96s-96,43-96,96v160C160,309,203,352,256,352z M416,192h-16
	c-8.8,0-16,7.2-16,16v48c0,74.8-64.5,134.8-140.8,127.4C176.7,376.9,128,317.1,128,250.3V208c0-8.8-7.2-16-16-16H96
	c-8.8,0-16,7.2-16,16v40.2c0,89.6,64,169.6,152,181.7V464h-56c-8.8,0-16,7.2-16,16v16c0,8.8,7.2,16,16,16h160c8.8,0,16-7.2,16-16
	v-16c0-8.8-7.2-16-16-16h-56v-33.8c85.7-11.8,152-85.3,152-174.2v-48C432,199.2,424.8,192,416,192z" />
</svg>