<svg xmlns="http://www.w3.org/2000/svg" viewBox="0 0 16 16"><path fill="currentColor" d="M3.25,13.75a1.59,1.59,0,0,1-1.5-1.67A1.77,1.77,0,0,1,2,11.17L6.74,3A1.46,1.46,0,0,1,8,2.25a1.38,1.38,0,0,1,.84.29A1.47,1.47,0,0,1,9.26,3l1.66,2.86-1,1.18L8.34,4.45a.35.35,0,0,0-.11-.13A.35.35,0,0,0,8,4.23a.39.39,0,0,0-.34.22L3.59,11.34a.61.61,0,0,0-.08.3.48.48,0,0,0,.43.52h8.12a.4.4,0,0,0,.23-.08.6.6,0,0,0,.12-.74L11.09,9.1l1-1.17L14,11.17a1.8,1.8,0,0,1-.42,2.29,1.38,1.38,0,0,1-.84.29Zm4.9-2.08a.79.79,0,0,1-.6-.28,1,1,0,0,1,0-1.26l4.29-4.88a.8.8,0,0,1,1.2,0,1,1,0,0,1,0,1.26L8.75,11.39A.79.79,0,0,1,8.15,11.67Z"/></svg>