<svg xmlns="http://www.w3.org/2000/svg" viewBox="0 0 24 24"><path fill="currentColor" d="M15.49,12.05a.75.75,0,0,1,.82.2l6.37,7.06a.75.75,0,0,1-.74,1.23l-3.54-.88-2.03,3.01A.75.75,0,0,1,15,22.25v-9.5A.7569.7569,0,0,1,15.49,12.05Zm6.064-4.4094L19.6519,5.7385H17.4458L15.5437,7.6406l.335.335,0,0,.0183.0183a.7554.7554,0,0,1,0,1.0606l-1.7678,1.7678a.7554.7554,0,0,1-1.0606,0l-.3721-.3721-1.9021,1.9021V14.87a.7367.7367,0,0,1-.75.75H7.2167a.75.75,0,0,1-.75-.75V12.3526L4.565,10.4505l-.3535.3535a.75.75,0,0,1-1.0607,0L1.383,9.0363a.7555.7555,0,0,1,0-1.0607L3.1508,6.2078a.7555.7555,0,0,1,1.0607,0L5.9792,7.9756a.7554.7554,0,0,1,0,1.0607L5.6257,9.39l1.9021,1.9021H9.734L11.636,9.39l-.335-.3351,0,0-.0183-.0183a.7555.7555,0,0,1,0-1.0607L13.05,6.2078a.7554.7554,0,0,1,1.0606,0l.3721.3721,1.9021-1.9021,0-2.5173a.7367.7367,0,0,1,.75-.7495H19.963a.75.75,0,0,1,.7495.7495l0,2.5173L22.6147,6.58M21.5541,7.6406A.75.75,0,1,0,22.6147,6.58"/></svg>