<svg xmlns="http://www.w3.org/2000/svg" viewBox="0 0 24 24"><path fill="currentColor" d="M17.76,20.75c-1.49,0-1.91-2.37-2.67-8.66a43.19,43.19,0,0,0-1.17-7,44.15,44.15,0,0,0-1.18,7c-.75,6.29-1.17,8.66-2.66,8.66s-1.91-2.37-2.66-8.66c-.31-2.55-.76-6.31-1.29-7.25A13,13,0,0,0,5.05,8.18C4.46,10.63,4,12.75,2.4,12.75a.75.75,0,0,1,0-1.5C2.82,11,3.32,9,3.59,7.83c.59-2.46,1.1-4.58,2.65-4.58S8.15,5.62,8.9,11.91a44.15,44.15,0,0,0,1.18,7,44.15,44.15,0,0,0,1.18-7c.75-6.29,1.17-8.66,2.66-8.66s1.91,2.37,2.66,8.66c.31,2.55.76,6.31,1.29,7.25A13,13,0,0,0,19,15.83c.59-2.46,1.1-4.58,2.65-4.58a.75.75,0,0,1,0,1.5c-.42.2-.92,2.3-1.19,3.42C19.82,18.63,19.31,20.75,17.76,20.75Z"/></svg>