<svg xmlns="http://www.w3.org/2000/svg" xmlns:xlink="http://www.w3.org/1999/xlink" fill="none" version="1.1" width="14" height="14" viewBox="0 0 14 14"><defs><clipPath id="master_svg0_779_8309"><rect x="0" y="0" width="14" height="14" rx="0"/></clipPath><clipPath id="master_svg1_779_8330"><rect x="-0.46268653869628906" y="1" width="14.925373077392578" height="12" rx="0"/></clipPath></defs><g clip-path="url(#master_svg0_779_8309)"><g clip-path="url(#master_svg1_779_8330)"><g transform="matrix(-1,0,0,1,26.000041961669922,0)"><g><path d="M19.69117098083496,1.236774C19.83119098083496,1.34219,19.95112098083496,1.478556,20.04383098083496,1.637756L21.61673098083496,4.3386L20.92115098083496,5.12948L19.55991098083496,2.8207899999999997C19.51508098083496,2.74474,19.45866098083496,2.67851,19.39337098083496,2.62516L19.375340980834963,2.6109299999999998C19.06609098083496,2.3752,18.64731098083496,2.46916,18.43999098083496,2.8207899999999997L14.37709098083496,9.71164C14.302650980834962,9.8379,14.262910980834961,9.98647,14.262910980834961,10.13847C14.262910980834961,10.5618,14.56473098083496,10.90498,14.937050980834961,10.90498L23.06282098083496,10.90498C23.19652098083496,10.90498,23.32722098083496,10.85979,23.438220980834963,10.77515C23.747520980834963,10.53942,23.830120980834963,10.06327,23.62282098083496,9.71164L22.39700098083496,7.63259L23.08172098083496,6.85414L24.791820980834963,9.79055C25.17352098083496,10.44606,25.01562098083496,11.3293,24.43912098083496,11.7634C24.23412098083496,11.9177,23.99372098083496,12,23.747920980834962,12L14.25201098083496,12C13.560554980834961,12,13.000020980834961,11.3627,13.000020980834961,10.57647C13.000020980834961,10.29695,13.07239858083496,10.02361,13.208126980834962,9.79055L17.956070980834962,1.637756C18.337820980834962,0.9822457,19.11465098083496,0.80272,19.69117098083496,1.236774ZM23.032620980834963,3.91909C23.25832098083496,3.66251,23.624220980834963,3.66251,23.849820980834963,3.91909C24.07552098083496,4.17567,24.07552098083496,4.591670000000001,23.849820980834963,4.84825L19.55960098083496,9.72631C19.33393098083496,9.98289,18.96807098083496,9.98289,18.74241098083496,9.72631C18.51675098083496,9.46973,18.51675098083496,9.05373,18.74241098083496,8.79715L23.032620980834963,3.91909Z" fill-rule="evenodd" fill="#FFFFFF" fill-opacity="1"/></g></g></g></g></svg>