<svg xmlns="http://www.w3.org/2000/svg" xmlns:xlink="http://www.w3.org/1999/xlink" fill="none" version="1.1" width="16"
     height="16" viewBox="0 0 16 16">
    <defs>
        <clipPath id="master_svg0_779_8148">
            <rect x="0" y="0" width="16" height="16" rx="0"/>
        </clipPath>
    </defs>
    <g clip-path="url(#master_svg0_779_8148)">
        <g>
            <g>
                <rect x="6.8539323806762695" y="2.5454545617103577" width="1.617977499961853"
                      height="10.363636016845703" rx="0.8089887499809265" fill="currentColor" fill-opacity="1"/>
            </g>
            <g>
                <path d="M12.7865,8.994924561710357Q12.7865,9.973074561710359,12.4013,10.836894561710357Q12.0161,11.700714561710358,11.34521,12.367634561710357Q10.67438,13.034554561710358,9.76443,13.460154561710358Q8.85449,13.885654561710357,7.80506,13.974554561710358Q7.73864,13.987254561710358,7.6855,13.993654561710358Q7.63237,13.999954561710357,7.56595,13.999954561710357L5.26784,13.999954561710357Q5.042009999999999,13.999954561710357,4.82283,13.923754561710357Q4.60364,13.847554561710357,4.43095,13.714154561710357Q4.25826,13.580754561710357,4.1453500000000005,13.402954561710358Q4.03243,13.225054561710358,4.03243,13.034554561710358Q4.03243,12.844054561710358,4.13871,12.666154561710357Q4.24498,12.488314561710357,4.41767,12.361284561710358Q4.59036,12.234254561710358,4.8029,12.158034561710357Q5.01544,12.081814561710358,5.24127,12.081814561710358L7.30027,12.094514561710358Q8.00432,12.094514561710358,8.62866,11.846804561710357Q9.253,11.599094561710357,9.717939999999999,11.179884561710358Q10.18287,10.760674561710358,10.44855,10.195384561710359Q10.71423,9.630094561710358,10.71423,8.982224561710357Q10.71423,8.372474561710359,10.47512,7.838934561710357Q10.23601,7.305404561710358,9.81757,6.886194561710358Q9.39913,6.466984561710358,8.8412,6.206574561710358Q8.283280000000001,5.946154561710358,7.63237,5.882634561710358Q7.6058,5.882634561710358,7.59916,5.888994561710358Q7.59252,5.895344561710358,7.56595,5.895344561710358L5.45381,5.895344561710358L5.45381,6.898894561710358Q5.45381,7.114854561710358,5.2744800000000005,7.216474561710358Q5.09515,7.318104561710357,4.69663,7.089444561710358Q4.59036,7.025924561710358,4.357889999999999,6.867134561710357Q4.12542,6.708344561710358,3.81325,6.492394561710357Q3.50108,6.276434561710358,3.1557,6.035074561710358L2.491504,5.552354561710358Q2.292246,5.399914561710357,2.1461230000000002,5.279234561710357Q2,5.158554561710358,2,4.980714561710357Q2,4.828274561710358,2.166049,4.663124561710358Q2.332097,4.497984561710358,2.544639,4.332844561710358Q2.7837490000000003,4.142294561710358,3.11585,3.888234561710358Q3.44794,3.6341645617103575,3.7734,3.3928065617103575Q4.0988500000000005,3.1514455617103576,4.357889999999999,2.9545455617103578Q4.61693,2.7576455617103575,4.7232,2.681426561710358Q5.042009999999999,2.465471261710358,5.24127,2.5925035617103576Q5.44053,2.719535561710358,5.45381,2.9736005617103576L5.45381,3.9898545617103576L7.56595,3.9898545617103576Q7.63237,3.9898545617103576,7.70543,4.002564561710358Q7.77849,4.0152645617103575,7.84491,4.027964561710357Q8.88105,4.129594561710357,9.78436,4.548804561710358Q10.68766,4.968004561710358,11.3585,5.634924561710358Q12.0293,6.301844561710357,12.4079,7.165664561710358Q12.7865,8.029484561710358,12.7865,8.994924561710357Z"
                      fill="currentColor" fill-opacity="0.8"/>
            </g>
            <g transform="matrix(0,1,-1,0,16,-12)">
                <path d="M18.895400000000002,5.24604Q18.9219,5.29143,18.942239999999998,5.3399Q18.96257,5.3883600000000005,18.976399999999998,5.43907Q18.99022,5.48978,18.99728,5.54186Q19.00435,5.59394,19.004550000000002,5.64649Q19.004739999999998,5.69905,18.99805,5.75118Q18.99137,5.80331,18.97792,5.85412Q18.964480000000002,5.90493,18.944499999999998,5.95354Q18.92452,6.00216,18.89835,6.04774Q18.87218,6.09332,18.84028,6.13508Q18.80837,6.17685,18.77128,6.21408Q18.734180000000002,6.25132,18.692529999999998,6.28337Q18.65088,6.31543,18.6054,6.34177Q18.559919999999998,6.3681,18.51138,6.38826Q18.46284,6.40842,18.41208,6.42205Q18.36132,6.43569,18.30922,6.44256Q18.25711,6.44944,18.20455,6.44944L15.79545,6.44944Q15.74289,6.44944,15.69078,6.44256Q15.63868,6.43569,15.58792,6.42205Q15.53716,6.40842,15.488620000000001,6.38826Q15.44008,6.3681,15.3946,6.34177Q15.34911,6.31543,15.30747,6.28337Q15.26582,6.25132,15.22872,6.21408Q15.19163,6.17685,15.15972,6.13508Q15.12782,6.09332,15.10165,6.04774Q15.07548,6.00216,15.0555,5.95354Q15.03552,5.90493,15.02208,5.85412Q15.00863,5.80331,15.00195,5.75118Q14.995261,5.69905,14.995454,5.6465Q14.995647,5.59394,15.00272,5.54186Q15.00978,5.48978,15.0236,5.43907Q15.037420000000001,5.3883600000000005,15.05776,5.3399Q15.0781,5.29143,15.1046,5.24604L16.30915,3.18314Q16.33547,3.13807,16.36741,3.09681Q16.39936,3.0555399999999997,16.4364,3.01877Q16.47344,2.982006,16.51494,2.950363Q16.55644,2.91872,16.6017,2.892737Q16.64696,2.866753,16.69521,2.84687Q16.74347,2.826988,16.79389,2.813542Q16.84432,2.800097,16.89607,2.793316Q16.94781,2.786536,17,2.786536Q17.05219,2.786536,17.10394,2.793316Q17.15568,2.800097,17.20611,2.813542Q17.25653,2.826988,17.30479,2.846871Q17.35304,2.866753,17.3983,2.892737Q17.44356,2.91872,17.48506,2.950363Q17.52656,2.982006,17.5636,3.01877Q17.60064,3.0555399999999997,17.63259,3.09681Q17.66453,3.13807,17.69085,3.18314L18.895400000000002,5.24604Z"
                      fill="currentColor" fill-opacity="1"/>
            </g>
        </g>
    </g>
</svg>