<svg xmlns="http://www.w3.org/2000/svg" xmlns:xlink="http://www.w3.org/1999/xlink" fill="none" version="1.1" width="16"
     height="16" viewBox="0 0 16 16">
    <defs>
        <clipPath id="master_svg0_779_8309">
            <rect x="16" y="0" width="16" height="16" rx="0"/>
        </clipPath>
        <clipPath id="master_svg1_779_8330">
            <rect x="16.53731346130371" y="2" width="14.925373077392578" height="12" rx="0"/>
        </clipPath>
    </defs>
    <g transform="matrix(-1,0,0,1,32,0)" clip-path="url(#master_svg0_779_8309)">
        <g clip-path="url(#master_svg1_779_8330)">
            <g transform="matrix(-1,0,0,1,60.00004196166992,0)">
                <g>
                    <path d="M36.69117098083496,2.236774C36.83119098083496,2.34219,36.95112098083496,2.478556,37.04383098083496,2.637756L38.61673098083496,5.3386L37.92115098083496,6.12948L36.559910980834964,3.8207899999999997C36.51508098083496,3.74474,36.45866098083496,3.67851,36.39337098083496,3.62516L36.37534098083496,3.6109299999999998C36.06609098083496,3.3752,35.64731098083496,3.46916,35.43999098083496,3.8207899999999997L31.37709098083496,10.71164C31.30265098083496,10.8379,31.26291098083496,10.98647,31.26291098083496,11.13847C31.26291098083496,11.5618,31.564730980834963,11.90498,31.93705098083496,11.90498L40.06282098083496,11.90498C40.19652098083496,11.90498,40.32722098083496,11.85979,40.43822098083496,11.77515C40.74752098083496,11.53942,40.83012098083496,11.06327,40.62282098083496,10.71164L39.39700098083496,8.63259L40.08172098083496,7.85414L41.79182098083496,10.79055C42.173520980834965,11.44606,42.01562098083496,12.3293,41.43912098083496,12.7634C41.23412098083496,12.9177,40.993720980834965,13,40.74792098083496,13L31.25201098083496,13C30.56055498083496,13,30.00002098083496,12.3627,30.00002098083496,11.57647C30.00002098083496,11.29695,30.07239858083496,11.02361,30.20812698083496,10.79055L34.95607098083496,2.637756C35.33782098083496,1.9822457,36.11465098083496,1.8027199999999999,36.69117098083496,2.236774ZM40.03262098083496,4.919090000000001C40.25832098083496,4.66251,40.62422098083496,4.66251,40.84982098083496,4.919090000000001C41.07552098083496,5.17567,41.07552098083496,5.591670000000001,40.84982098083496,5.84825L36.55960098083496,10.72631C36.333930980834964,10.98289,35.96807098083496,10.98289,35.74241098083496,10.72631C35.51675098083496,10.46973,35.51675098083496,10.05373,35.74241098083496,9.79715L40.03262098083496,4.919090000000001Z"
                          fill-rule="evenodd" fill="currentColor" fill-opacity="1"/>
                </g>
            </g>
        </g>
    </g>
</svg>