<svg xmlns="http://www.w3.org/2000/svg" xmlns:xlink="http://www.w3.org/1999/xlink" fill="none" version="1.1" width="16"
     height="16" viewBox="0 0 16 16">
    <defs>
        <clipPath id="master_svg0_779_8138">
            <rect x="0" y="0" width="16" height="16" rx="0"/>
        </clipPath>
    </defs>
    <g clip-path="url(#master_svg0_779_8138)">
        <g>
            <path d="M13.8061,7.683425682907105C13.923,7.764755682907104,14,7.906505682907104,14,8.067965682907104C13.9995,8.228835682907103,13.9218,8.370675682907105,13.8044,8.451575682907105L8.143930000000001,12.355105682907105C8.01811,12.441645682907104,7.85325,12.453845682907104,7.71301,12.370745682907105C7.57267,12.287685682907105,7.49326,12.131495682907104,7.49326,11.970145682907104L7.49326,9.646935682907104L2.621989,12.446465682907105C2.4954359999999998,12.519095682907105,2.337406,12.520355682907104,2.205184,12.434665682907104C2.0734133,12.349415682907104,2,12.198535682907105,2,12.043645682907105L2,4.0482626829071044C2,3.8929406829071045,2.0737912,3.7415796829071044,2.206013,3.6563744829071045C2.338625,3.5711168829071043,2.49707,3.5728664829071044,2.6236230000000003,3.6463634829071045L7.49325,6.473745682907104L7.49325,4.122667682907105C7.49325,3.9608736829071045,7.57311,3.8042106829071045,7.71379,3.7216366829071044C7.84975,3.6415311829071046,8.01544,3.6481907829071045,8.1455,3.7389876829071045L13.8061,7.683425682907105Z"
                  fill="currentColor" fill-opacity="1"/>
        </g>
    </g>
</svg>