<svg xmlns="http://www.w3.org/2000/svg" xmlns:xlink="http://www.w3.org/1999/xlink" fill="none" version="1.1" width="16"
     height="16" viewBox="0 0 16 16">
    <defs>
        <clipPath id="master_svg0_256_03234">
            <rect x="0" y="0" width="16" height="16" rx="0"/>
        </clipPath>
    </defs>
    <g clip-path="url(#master_svg0_256_03234)">
        <g transform="matrix(-1,0,0,-1,28,25)">
            <path d="M25.8061,16.591630000000002C25.923000000000002,16.67296,26,16.814709999999998,26,16.97617C25.999499999999998,17.13704,25.921799999999998,17.27888,25.8044,17.35978L20.14393,21.26331C20.01811,21.34985,19.85325,21.36205,19.71301,21.278950000000002C19.57267,21.19589,19.49326,21.0397,19.49326,20.878349999999998L19.49326,18.55514L14.621989,21.35467C14.495436,21.427300000000002,14.337406,21.428559999999997,14.205184,21.342869999999998C14.0734133,21.25762,14,21.106740000000002,14,20.95185L14,12.956467C14,12.801145,14.0737912,12.649784,14.206013,12.5645788C14.338625,12.4793212,14.49707,12.4810708,14.623623,12.5545678L19.49325,15.38195L19.49325,13.030872C19.49325,12.869078,19.57311,12.712415,19.71379,12.629841C19.84975,12.5497355,20.015439999999998,12.5563951,20.1455,12.647192L25.8061,16.591630000000002Z"
                  fill="currentColor" fill-opacity="1"/>
        </g>
    </g>
</svg>