<svg xmlns="http://www.w3.org/2000/svg" xmlns:xlink="http://www.w3.org/1999/xlink" fill="none"
    version="1.1" width="15.999958038330078" height="16" viewBox="0 0 15.999958038330078 16">
    <defs>
        <clipPath id="master_svg0_779_8225">
            <rect x="0" y="0" width="15.999958038330078" height="16" rx="0" />
        </clipPath>
    </defs>
    <g clip-path="url(#master_svg0_779_8225)">
        <g>
            <g>
                <path
                    d="M6.721261484375,13.1216015625C6.721261484375,13.3732015625,6.515381484375,13.5791015625,6.263751484375,13.5791015625L4.467030484375,13.5791015625C4.215397484375,13.5791015625,4.009521484375,13.3732015625,4.009521484375,13.1216015625L4.009521484375,3.0366105625C4.009521484375,2.7849785625,4.215397484375,2.5791015625,4.467030484375,2.5791015625L6.263751484375,2.5791015625C6.515381484375,2.5791015625,6.721261484375,2.7849785625,6.721261484375,3.0366105625L6.721261484375,13.1216015625Z"
                    fill="currentColor" fill-opacity="1" />
            </g>
            <g>
                <path
                    d="M11.950911504974364,13.1216015625C11.950911504974364,13.3732015625,11.745031504974365,13.5791015625,11.493401504974365,13.5791015625L9.696680504974365,13.5791015625C9.445047504974365,13.5791015625,9.239171504974365,13.3732015625,9.239171504974365,13.1216015625L9.239171504974365,3.0366105625C9.239171504974365,2.7849785625,9.445047504974365,2.5791015625,9.696680504974365,2.5791015625L11.493401504974365,2.5791015625C11.745031504974365,2.5791015625,11.950911504974364,2.7849785625,11.950911504974364,3.0366105625L11.950911504974364,13.1216015625Z"
                    fill="currentColor" fill-opacity="1" />
            </g>
        </g>
    </g>
</svg>