<svg xmlns="http://www.w3.org/2000/svg" xmlns:xlink="http://www.w3.org/1999/xlink" fill="none" version="1.1" width="20"
     height="20" viewBox="0 0 20 20">
    <defs>
        <clipPath id="master_svg0_809_01379">
            <rect x="2" y="2" width="16" height="16" rx="0"/>
        </clipPath>
    </defs>
    <g>
        <g clip-path="url(#master_svg0_809_01379)">
            <g>
                <path d="M12.91035,14.0387C11.98001,14.7356,10.824639999999999,15.1484,9.57286,15.1484C6.4950600000000005,15.1484,4,12.65278,4,9.57422C4,6.49566,6.4950600000000005,4,9.57286,4C12.65067,4,15.1457,6.49566,15.1457,9.57422C15.1457,10.8263,14.733,11.98196,14.0362,12.91252L15.7678,14.6445C16.0773,14.9541,16.0783,15.455,15.7652,15.7681C15.4543,16.0791,14.9458,16.0746,14.642,15.7707L12.91035,14.0387ZM9.57286,13.55581C11.7713,13.55581,13.55348,11.77319,13.55348,9.57422C13.55348,7.375249999999999,11.7713,5.59263,9.57286,5.59263C7.37443,5.59263,5.59225,7.375249999999999,5.59225,9.57422C5.59225,11.77319,7.37443,13.55581,9.57286,13.55581Z"
                      fill="currentColor"/>
            </g>
        </g>
    </g>
</svg>