<svg xmlns="http://www.w3.org/2000/svg" xmlns:xlink="http://www.w3.org/1999/xlink" fill="none" version="1.1" width="20"
     height="20" viewBox="0 0 20 20">
    <defs>
        <clipPath id="master_svg0_809_01284">
            <rect x="2" y="2" width="16" height="16" rx="0"/>
        </clipPath>
    </defs>
    <g>
        <g clip-path="url(#master_svg0_809_01284)">
            <g>
                <path d="M15.735,11.125L14.7171,10.353570000000001C14.7279,10.24643,14.7386,10.12857,14.7386,10C14.7386,9.87143,14.7279,9.75357,14.7171,9.646429999999999L15.735,8.875C16.0136,8.66071,16.0886,8.28571,15.9064,7.96429L14.7707,6.04643C14.6421,5.82143,14.3957,5.68214,14.1386,5.68214C14.0529,5.68214,13.97786,5.69286,13.89214,5.725L12.68143,6.196429999999999C12.47786,6.05714,12.26357,5.93929,12.04929,5.84286L11.86714,4.610714C11.81357,4.257143,11.51357,4,11.14929,4L8.85643,4C8.49214,4,8.19214,4.257143,8.13857,4.6L7.9671400000000006,5.84286C7.75286,5.93929,7.54929,6.05714,7.335,6.196429999999999L6.12429,5.725C6.03857,5.69286,5.95286,5.68214,5.86714,5.68214C5.61,5.68214,5.36357,5.81071,5.24571,6.03571L4.0992856,7.96429C3.9171428,8.264289999999999,3.99214276,8.66071,4.270714,8.875L5.28857,9.646429999999999C5.27786,9.775,5.2671399999999995,9.892859999999999,5.2671399999999995,10C5.2671399999999995,10.107140000000001,5.2671399999999995,10.225,5.28857,10.353570000000001L4.270714,11.125C3.99214281,11.33929,3.9171428,11.71429,4.0992856,12.03571L5.235,13.95357C5.36357,14.1786,5.61,14.3179,5.86714,14.3179C5.95286,14.3179,6.02786,14.3071,6.11357,14.275L7.3242899999999995,13.80357C7.52786,13.94286,7.74214,14.0607,7.95643,14.1571L8.13857,15.3893C8.181429999999999,15.7321,8.49214,16,8.85643,16L11.14929,16C11.51357,16,11.81357,15.7429,11.86714,15.4L12.04928,14.1571C12.26357,14.0607,12.46714,13.94286,12.68143,13.80357L13.89214,14.275C13.97786,14.3071,14.0636,14.3179,14.1493,14.3179C14.4064,14.3179,14.6529,14.1893,14.7707,13.96429L15.9171,12.025C16.0886,11.71429,16.0136,11.33929,15.735,11.125ZM12.57429,10C12.57429,11.414290000000001,11.41714,12.57143,10.00286,12.57143C8.58857,12.57143,7.431430000000001,11.414290000000001,7.431430000000001,10C7.431430000000001,8.585709999999999,8.58857,7.428570000000001,10.00286,7.428570000000001C11.41714,7.428570000000001,12.57429,8.585709999999999,12.57429,10Z"
                      fill="currentColor"/>
            </g>
        </g>
    </g>
</svg>