<?xml version="1.0" encoding="utf-8"?>
<!-- Generator: Adobe Illustrator 24.3.0, SVG Export Plug-In . SVG Version: 6.00 Build 0)  -->
<svg version="1.1" id="图层_1" xmlns="http://www.w3.org/2000/svg" xmlns:xlink="http://www.w3.org/1999/xlink" x="0px" y="0px"
	 viewBox="0 0 400 400" style="enable-background:new 0 0 400 400;" xml:space="preserve">
<style type="text/css">
	.st0{fill:#DFB45D;}
	.st1{fill:#FFFFFF;}
	.st2{fill:#84B857;}
	.st3{fill:#F7C767;}
</style>
<g>
	<g>
		<path class="st0" d="M26.3,37.5c-2.6,0-5,0.4-7.2,1c-3.9,1.1-7.4,3.2-10.5,6.3c-0.1,0.1-0.2,0.2-0.3,0.3c-4.6,4.8-7,10.6-7,17.4
			v275c0,6.9,2.5,12.8,7.3,17.7c4.9,4.8,10.8,7.3,17.7,7.3h294.9c6.9,0,12.8-2.5,17.7-7.3c4.8-4.9,7.3-10.8,7.3-17.7v-245
			c0-6.9-2.5-12.8-7.3-17.7c-3.1-3.1-6.6-5.2-10.5-6.3c-2.2-0.6-4.6-1-7.2-1H165.3c-10.1,0-19.2-2.9-27.3-8.9
			c-2.6-1.8-4.9-3.9-6.9-6.1l-2.3-2.8c-4-5.8-8.7-9.6-13.9-11.3c-1.3-0.5-2.4-0.8-3.5-0.9h-3H26.3z"/>
	</g>
	<g>
		<path class="st1" d="M69,136.7c-4.9,4.9-10.8,7.3-17.7,7.3H16.2v175c0,6.9,2.5,12.8,7.4,17.6c4.8,5,10.7,7.4,17.7,7.4h264.9
			c7,0,12.9-2.4,17.7-7.4c4.9-4.8,7.3-10.7,7.3-17.6V109c0-6.9-2.4-12.8-7.3-17.7c-4.8-4.9-10.7-7.3-17.7-7.3H76.3v35
			C76.3,125.9,73.8,131.8,69,136.7z"/>
		<path class="st2" d="M51.3,144c6.9,0,12.8-2.4,17.7-7.3c4.8-4.9,7.3-10.8,7.3-17.7V84l-60.1,60H51.3z"/>
	</g>
	<g>
		<path class="st3" d="M64.1,152.8c-5.8,3.6-9.4,7.9-10.8,12.9L6.1,344.3c-1.3,5,0,9.4,4,12.9c2.5,2.3,5.5,3.7,9.1,4.5
			c2.2,0.5,4.5,0.8,7,0.8h295c6.9,0,13.2-1.8,19-5.3c5.9-3.6,9.5-7.9,10.8-12.9l47.2-178.6c1.4-5,0-9.4-4-12.9
			c-2.4-2.2-5.5-3.7-9.1-4.6c-2.2-0.5-4.5-0.7-7-0.7h-295C76.3,147.5,69.9,149.3,64.1,152.8z"/>
	</g>
</g>
</svg>
