<?xml version="1.0" encoding="utf-8"?>
<!-- Generator: Adobe Illustrator 24.3.0, SVG Export Plug-In . SVG Version: 6.00 Build 0)  -->
<svg version="1.1" id="图层_1" xmlns="http://www.w3.org/2000/svg" xmlns:xlink="http://www.w3.org/1999/xlink" x="0px" y="0px"
	 viewBox="0 0 256 256" style="enable-background:new 0 0 256 256;" xml:space="preserve">
<style type="text/css">
	.st0{fill:#666666;}
	.st1{fill:#FFFFFF;}
	.st2{fill:#CC99FF;}
	.st3{fill:#6D00DB;}
</style>
<g>
	<g>
		<path class="st0" d="M239.9,68.5c0-1.3-0.5-2.3-1.4-3.2l-50-50c-0.9-0.9-1.9-1.3-3.1-1.3H63.8v228h176.1L239.9,68.5L239.9,68.5z
			 M189.9,64V29.3L224.4,64H189.9z M180.9,23v50h50v160H72.8V23H180.9z"/>
		<path class="st1" d="M189.9,29.3V64h34.6L189.9,29.3z"/>
		<path class="st1" d="M180.9,73V23H72.8v210h158.1V73H180.9z"/>
	</g>
	<g>
		<path class="st2" d="M88.4,208.5v10h128v-10H88.4z"/>
		<path class="st2" d="M88.4,185.5v10h128v-10H88.4z"/>
	</g>
	<g>
		<path class="st0" d="M212.4,73v-9h-22.6V32.7c0-1.3-0.5-2.3-1.4-3.1c-0.9-0.9-1.9-1.4-3.1-1.4c-1.3,0-2.4,0.5-3.2,1.4
			c-0.9,0.8-1.3,1.8-1.3,3.1v12.5H99.1V171h109.4V73H212.4z M180.9,54.2V73h18.6v89h-91.4V54.2H180.9z"/>
	</g>
	<g>
		<path class="st0" d="M171.1,74.6c-3.7-4-7.6-8.1-11.9-12l-5.4-4.9v73.2c-7.4-4.7-15.1-4.5-23.2,0.7c-5,3.1-8,6.9-9.1,11.4
			c-0.9,4-0.3,7.2,1.8,9.8c2.1,2.5,4.9,4,8.6,4.7c4.3,0.7,9-0.1,14-2.4c4.5-2.1,7.9-5.1,10.1-9.1c0.7-1.3,1.3-2.5,1.6-3.8l0.3-1.6
			v-49c16.7,8.2,23.5,19.5,20.5,33.7c-0.9,4.5-2.7,9-5.5,13.6c-1.2,2-2.4,3.4-3.3,4.2c3.3-2.5,6.6-5.8,9.8-9.9
			c6.7-8.6,9.9-17.2,9.6-26C188.8,98.5,182.8,87.6,171.1,74.6z"/>
	</g>
	<g>
		<path class="st3" d="M130.2,204.1v-114H16.1v114H130.2z"/>
	</g>
	<g>
		<path class="st1" d="M96.7,117.8H84.4v34.1c0,9.3-3.8,13.8-11.2,13.8c-7.6,0-11.3-4.7-11.3-14.3v-33.6H49.7v33.5
			c0,16.7,7.7,25,23.1,25c15.9,0,23.9-8.5,23.9-25.6C96.7,150.7,96.7,117.8,96.7,117.8z"/>
	</g>
</g>
</svg>
