<?xml version="1.0" encoding="utf-8"?>
<!-- Generator: Adobe Illustrator 24.3.0, SVG Export Plug-In . SVG Version: 6.00 Build 0)  -->
<svg version="1.1" id="图层_1" xmlns="http://www.w3.org/2000/svg" xmlns:xlink="http://www.w3.org/1999/xlink" x="0px" y="0px"
	 viewBox="0 0 120 120" style="enable-background:new 0 0 120 120;" xml:space="preserve">
<style type="text/css">
	.st0{fill-rule:evenodd;clip-rule:evenodd;fill:#333333;}
	.st1{fill-rule:evenodd;clip-rule:evenodd;}
	.st2{fill:#888888;}
</style>
<path class="st0" d="M24.4,37.9l19.9,34.4l4.2-7.3c0.1-0.2,0.2-0.4,0.3-0.6l9.9,17.2l-6.7,11.7c-2.4,4.1-7.6,5.5-11.7,3.1
	c-1.3-0.7-2.3-1.7-3-2.9c-0.8-0.6-1.5-1.4-2-2.4L9.6,46.5c-2.4-4.1-1-9.4,3.1-11.7C16.8,32.4,22.1,33.8,24.4,37.9z"/>
<path class="st1" d="M73.7,96.8L73.7,96.8C73.7,96.8,73.6,96.8,73.7,96.8c-0.1,0-0.1-0.1-0.2-0.1c-0.9-0.4-1.7-1-2.5-1.7
	c0,0,0,0,0,0c0,0,0,0-0.1-0.1c-0.6-0.6-1-1.2-1.4-1.9L43.9,48.6c-2.4-4.1-1-9.4,3.1-11.7c4.1-2.4,9.4-1,11.7,3.1l18.3,31.8L95.5,40
	c2.4-4.1,7.6-5.5,11.7-3.1c4.1,2.4,5.5,7.6,3.1,11.7L84.6,93.1c-0.4,0.7-0.9,1.4-1.5,2c0,0,0,0,0,0c0,0,0,0,0,0
	c-0.7,0.7-1.5,1.2-2.4,1.6c0,0-0.1,0-0.1,0c0,0,0,0,0,0c-1.1,0.5-2.3,0.7-3.4,0.7C76,97.5,74.8,97.3,73.7,96.8z"/>
<path class="st0" d="M77.1,97.5l0-25.8l0,0.1L95.5,40c2.4-4.1,7.6-5.5,11.7-3.1s5.5,7.6,3.1,11.7L84.6,93.1
	c-0.4,0.6-0.8,1.2-1.3,1.8c0,0-0.1,0.1-0.1,0.1c0,0,0,0,0,0c-0.7,0.7-1.6,1.3-2.5,1.7c0,0,0,0-0.1,0c0,0,0,0,0,0
	C79.5,97.3,78.3,97.5,77.1,97.5C77.1,97.5,77.1,97.5,77.1,97.5z M52.5,35.8l-2.2,0C51,35.7,51.7,35.7,52.5,35.8z"/>
<ellipse class="st2" cx="76.9" cy="41.4" rx="5.8" ry="5.8"/>
<path class="st2" d="M76.4,92.6c-0.6,0-1-0.4-1-1l0-8c0-0.6,0.4-1,1-1h0c0.6,0,1,0.4,1,1l0,8C77.4,92.2,76.9,92.6,76.4,92.6
	L76.4,92.6z M76.4,76.6c-0.6,0-1-0.4-1-1l0-8c0-0.6,0.4-1,1-1h0c0.6,0,1,0.4,1,1l0,8C77.4,76.2,76.9,76.6,76.4,76.6L76.4,76.6z
	 M76.4,60.6c-0.6,0-1-0.4-1-1l0-8c0-0.6,0.4-1,1-1h0c0.6,0,1,0.4,1,1l0,8C77.4,60.2,76.9,60.6,76.4,60.6L76.4,60.6z"/>
</svg>
