<svg xmlns="http://www.w3.org/2000/svg" xmlns:xlink="http://www.w3.org/1999/xlink"
    fill="none"
    version="1.1" width="15.943843841552734" height="15.960975646972656"
    viewBox="0 0 15.943843841552734 15.960975646972656">
    <g>
        <path
            d="M15.3154,4.87337C14.9146,3.92273,14.3392,3.07044,13.6078,2.33678C12.8764,1.60468,12.0234,1.02868,11.0737,0.627512C10.0912,0.210732,9.04639,0,7.97036,0C6.89434,0,5.85107,0.210732,4.86705,0.627512C3.9189,1.03024,3.06588,1.60468,2.3345,2.33834C1.60312,3.07044,1.02768,3.92429,0.6269,4.87493C0.210526,5.85834,0,6.90419,0,7.98127C0,9.05834,0.210526,10.1026,0.6269,11.0876C1.02768,12.0382,1.60312,12.8905,2.3345,13.6242C3.06588,14.3563,3.9189,14.9323,4.86861,15.3335C5.85107,15.7502,6.8959,15.961,7.97192,15.961C9.04794,15.961,10.0912,15.7502,11.0752,15.3335C12.0249,14.9323,12.8764,14.3563,13.6093,13.6242C14.3407,12.8921,14.9162,12.0382,15.3169,11.0876C15.7333,10.1042,15.9438,9.05834,15.9438,7.98127C15.9438,6.9042,15.7318,5.85834,15.3154,4.87337ZM8.55048,11.9649C8.55048,12.2927,8.28537,12.558,7.95789,12.558C7.6304,12.558,7.3653,12.2927,7.3653,11.9649L7.3653,6.14244C7.3653,5.81463,7.6304,5.54927,7.95789,5.54927C8.28537,5.54927,8.55048,5.81463,8.55048,6.14244L8.55048,11.9649ZM7.93138,4.73444C7.47602,4.73444,7.10799,4.36449,7.10799,3.91024C7.10799,3.45444,7.47758,3.08605,7.93138,3.08605C8.38674,3.08605,8.75477,3.456,8.75477,3.91024C8.75633,4.36605,8.38674,4.73444,7.93138,4.73444Z"
            fill="currentColor" />
    </g>
</svg>