<?xml version="1.0" encoding="utf-8"?>
<!-- Generator: Adobe Illustrator 24.3.0, SVG Export Plug-In . SVG Version: 6.00 Build 0)  -->
<svg version="1.1" id="图层_1" focusable="false" xmlns="http://www.w3.org/2000/svg"
	xmlns:xlink="http://www.w3.org/1999/xlink" x="0px" y="0px" viewBox="0 0 512 512"
	style="enable-background:new 0 0 512 512;" xml:space="preserve">
	<style type="text/css">
		.st0 {
			fill: #E62A7A;
		}
	</style>
	<path class="st0"
		d="M256,0C114.6,0,0,114.6,0,256s114.6,256,256,256s256-114.6,256-256S397.4,0,256,0z M90.8,256h-33
	c0-109.3,88.9-198.2,198.2-198.2v33C165,90.8,90.8,165,90.8,256z M256,355.1c-54.7,0-99.1-44.4-99.1-99.1s44.4-99.1,99.1-99.1
	s99.1,44.4,99.1,99.1S310.7,355.1,256,355.1z M256,223c-18.3,0-33,14.8-33,33s14.8,33,33,33s33-14.8,33-33S274.3,223,256,223z" />
</svg>