<?xml version="1.0" encoding="utf-8"?>
<!-- Generator: Adobe Illustrator 24.3.0, SVG Export Plug-In . SVG Version: 6.00 Build 0)  -->
<svg version="1.1" id="图层_1" focusable="false" xmlns="http://www.w3.org/2000/svg" xmlns:xlink="http://www.w3.org/1999/xlink"
	 x="0px" y="0px" viewBox="0 0 512 512" style="enable-background:new 0 0 512 512;" xml:space="preserve">
<style type="text/css">
	.st0{fill:#A4373A;}
</style>
<path class="st0" d="M466,84.5v42.8c0,37.8-94,68.5-210,68.5S46,165.2,46,127.5V84.5C46,46.8,140,16,256,16S466,46.8,466,84.5z
	 M466,181v96.5c0,37.8-94,68.5-210,68.5S46,315.2,46,277.5V181c45.1,31,127.7,45.6,210,45.6S420.9,212,466,181z M466,331v96.5
	c0,37.8-94,68.5-210,68.5S46,465.2,46,427.5V331c45.1,31,127.7,45.6,210,45.6S420.9,362,466,331z"/>
</svg>
