<?xml version="1.0" encoding="utf-8"?>
<!-- Generator: Adobe Illustrator 24.3.0, SVG Export Plug-In . SVG Version: 6.00 Build 0)  -->
<svg version="1.1" id="图层_1" xmlns="http://www.w3.org/2000/svg" xmlns:xlink="http://www.w3.org/1999/xlink" x="0px" y="0px"
	 viewBox="0 0 256 256" style="enable-background:new 0 0 256 256;" xml:space="preserve">
<style type="text/css">
	.st0{fill:none;}
	.st1{fill:#A4373A;}
</style>
<path class="st0" d="M116,116h24v24h-24V116z"/>
<path class="st1" d="M133.1,38.4h110.1c7.7,0,12.8,5.1,12.8,12.8v179.2c0,7.7-5.1,12.8-12.8,12.8H12.8c-7.7,0-12.8-5.1-12.8-12.8
	V25.6c0-7.7,5.1-12.8,12.8-12.8h94.7L133.1,38.4z M115.2,142.1c-17.9-3.8-34.6,7.7-37.1,24.3c-3.8,17.9,7.7,34.6,24.3,37.1
	c16.6,2.6,34.6-7.7,37.1-24.3c0-2.6,1.3-3.8,1.3-6.4v-57.6h38.4V89.6h-64V142.1z"/>
</svg>
