<?xml version="1.0" encoding="utf-8"?>
<!-- Generator: Adobe Illustrator 24.3.0, SVG Export Plug-In . SVG Version: 6.00 Build 0)  -->
<svg version="1.1" id="图层_1" focusable="false" xmlns="http://www.w3.org/2000/svg" xmlns:xlink="http://www.w3.org/1999/xlink"
	 x="0px" y="0px" viewBox="0 0 512 512" style="enable-background:new 0 0 512 512;" xml:space="preserve">
<style type="text/css">
	.st0{fill:#498BA7;}
</style>
<path class="st0" d="M478.5,388.2c-7.5,27.4-31.9,42.8-64.6,48c-28.7,4.5-52.6,5.6-75.6-10.2c-28-20.1-28.4-53.4-3.2-74.4
	c19.9-16.2,47.9-19.5,90-25.8c7-1.1,13.1-2.5,18.3-7.4c7.5-7.2,5.2-4.1,5.2-163.2c0-11.2-6.4-14.3-19.9-12.3
	c-9.6,1.4-217.6,34.6-217.6,34.6c-12,2.2-15.7,5.2-15.7,16.7c0,234.7,1.3,223.9-2.9,239.5c-4.9,18.2-18,31.9-35.4,39.5
	c-19.7,9.3-55.3,13.4-74.3,10.4c-50.6-8.1-68.4-58-34.1-86.6c19.9-16.2,47.9-19.5,90-25.8c7-1.1,13.1-2.5,18.3-7.4
	c11.8-11.5,2.1-256.6,6.1-270.2c0.9-5.2,3.5-9.6,8.3-12.9c4.9-3.5,13.8-5.5,15.7-5.5C426.2,37,455.3,32.1,459.4,32.1
	c13.5-0.8,21.2,6,21.2,17.6C480.9,394.2,481.9,375.7,478.5,388.2z"/>
</svg>
