<?xml version="1.0" encoding="utf-8"?>
<!-- Generator: Adobe Illustrator 24.3.0, SVG Export Plug-In . SVG Version: 6.00 Build 0)  -->
<svg version="1.1" id="图层_1" focusable="false" xmlns="http://www.w3.org/2000/svg" xmlns:xlink="http://www.w3.org/1999/xlink"
	 x="0px" y="0px" viewBox="0 0 576 576" style="enable-background:new 0 0 576 576;" xml:space="preserve">
<path d="M528,480H48c-26.5,0-48-21.5-48-48V144c0-26.5,21.5-48,48-48h480c26.5,0,48,21.5,48,48v288C576,458.5,554.5,480,528,480z
	 M128,212v-40c0-6.6-5.4-12-12-12H76c-6.6,0-12,5.4-12,12v40c0,6.6,5.4,12,12,12h40C122.6,224,128,218.6,128,212z M224,212v-40
	c0-6.6-5.4-12-12-12h-40c-6.6,0-12,5.4-12,12v40c0,6.6,5.4,12,12,12h40C218.6,224,224,218.6,224,212z M320,212v-40
	c0-6.6-5.4-12-12-12h-40c-6.6,0-12,5.4-12,12v40c0,6.6,5.4,12,12,12h40C314.6,224,320,218.6,320,212z M416,212v-40
	c0-6.6-5.4-12-12-12h-40c-6.6,0-12,5.4-12,12v40c0,6.6,5.4,12,12,12h40C410.6,224,416,218.6,416,212z M512,212v-40
	c0-6.6-5.4-12-12-12h-40c-6.6,0-12,5.4-12,12v40c0,6.6,5.4,12,12,12h40C506.6,224,512,218.6,512,212z M176,308v-40
	c0-6.6-5.4-12-12-12h-40c-6.6,0-12,5.4-12,12v40c0,6.6,5.4,12,12,12h40C170.6,320,176,314.6,176,308z M272,308v-40
	c0-6.6-5.4-12-12-12h-40c-6.6,0-12,5.4-12,12v40c0,6.6,5.4,12,12,12h40C266.6,320,272,314.6,272,308z M368,308v-40
	c0-6.6-5.4-12-12-12h-40c-6.6,0-12,5.4-12,12v40c0,6.6,5.4,12,12,12h40C362.6,320,368,314.6,368,308z M464,308v-40
	c0-6.6-5.4-12-12-12h-40c-6.6,0-12,5.4-12,12v40c0,6.6,5.4,12,12,12h40C458.6,320,464,314.6,464,308z M128,404v-40
	c0-6.6-5.4-12-12-12H76c-6.6,0-12,5.4-12,12v40c0,6.6,5.4,12,12,12h40C122.6,416,128,410.6,128,404z M416,404v-40
	c0-6.6-5.4-12-12-12H172c-6.6,0-12,5.4-12,12v40c0,6.6,5.4,12,12,12h232C410.6,416,416,410.6,416,404z M512,404v-40
	c0-6.6-5.4-12-12-12h-40c-6.6,0-12,5.4-12,12v40c0,6.6,5.4,12,12,12h40C506.6,416,512,410.6,512,404z"/>
</svg>
