<?xml version="1.0" encoding="utf-8"?>
<!-- Generator: Adobe Illustrator 24.3.0, SVG Export Plug-In . SVG Version: 6.00 Build 0)  -->
<svg version="1.1" id="图层_1" focusable="false" xmlns="http://www.w3.org/2000/svg" xmlns:xlink="http://www.w3.org/1999/xlink"
	 x="0px" y="0px" viewBox="0 0 576 576" style="enable-background:new 0 0 576 576;" xml:space="preserve">
<path d="M528,96H48c-26.5,0-48,21.5-48,48v288c0,26.5,21.5,48,48,48h480c26.5,0,48-21.5,48-48V144C576,117.5,554.5,96,528,96z
	 M536,432c0,4.4-3.6,8-8,8H48c-4.4,0-8-3.6-8-8V144c0-4.4,3.6-8,8-8h480c4.4,0,8,3.6,8,8V432z M170,302v-28c0-6.6-5.4-12-12-12h-28
	c-6.6,0-12,5.4-12,12v28c0,6.6,5.4,12,12,12h28C164.6,314,170,308.6,170,302z M266,302v-28c0-6.6-5.4-12-12-12h-28
	c-6.6,0-12,5.4-12,12v28c0,6.6,5.4,12,12,12h28C260.6,314,266,308.6,266,302z M362,302v-28c0-6.6-5.4-12-12-12h-28
	c-6.6,0-12,5.4-12,12v28c0,6.6,5.4,12,12,12h28C356.6,314,362,308.6,362,302z M458,302v-28c0-6.6-5.4-12-12-12h-28
	c-6.6,0-12,5.4-12,12v28c0,6.6,5.4,12,12,12h28C452.6,314,458,308.6,458,302z M122,384v-28c0-6.6-5.4-12-12-12H82
	c-6.6,0-12,5.4-12,12v28c0,6.6,5.4,12,12,12h28C116.6,396,122,390.6,122,384z M506,384v-28c0-6.6-5.4-12-12-12h-28
	c-6.6,0-12,5.4-12,12v28c0,6.6,5.4,12,12,12h28C500.6,396,506,390.6,506,384z M122,220v-28c0-6.6-5.4-12-12-12H82
	c-6.6,0-12,5.4-12,12v28c0,6.6,5.4,12,12,12h28C116.6,232,122,226.6,122,220z M218,220v-28c0-6.6-5.4-12-12-12h-28
	c-6.6,0-12,5.4-12,12v28c0,6.6,5.4,12,12,12h28C212.6,232,218,226.6,218,220z M314,220v-28c0-6.6-5.4-12-12-12h-28
	c-6.6,0-12,5.4-12,12v28c0,6.6,5.4,12,12,12h28C308.6,232,314,226.6,314,220z M410,220v-28c0-6.6-5.4-12-12-12h-28
	c-6.6,0-12,5.4-12,12v28c0,6.6,5.4,12,12,12h28C404.6,232,410,226.6,410,220z M506,220v-28c0-6.6-5.4-12-12-12h-28
	c-6.6,0-12,5.4-12,12v28c0,6.6,5.4,12,12,12h28C500.6,232,506,226.6,506,220z M408,378v-16c0-6.6-5.4-12-12-12H180
	c-6.6,0-12,5.4-12,12v16c0,6.6,5.4,12,12,12h216C402.6,390,408,384.6,408,378z"/>
</svg>
