<?xml version="1.0" encoding="utf-8"?>
<!-- Generator: Adobe Illustrator 24.3.0, SVG Export Plug-In . SVG Version: 6.00 Build 0)  -->
<svg version="1.1" id="图层_1" xmlns="http://www.w3.org/2000/svg" xmlns:xlink="http://www.w3.org/1999/xlink" x="0px" y="0px"
	 viewBox="0 0 512 512" style="enable-background:new 0 0 512 512;" xml:space="preserve">
<style type="text/css">
	.st0{fill:#1EB39C;}
	.st1{fill:#15A490;}
	.st2{fill:#077E6E;}
	.st3{fill:#C21F1F;}
	.st4{fill:#E9505A;}
</style>
<g>
	<g>
		<g>
			<g>
				<path class="st0" d="M273.8,118.6c0-7.6-2.9-14.1-8.5-19.9c-5.9-5.7-12.4-8.6-19.9-8.6c-19,0-28.5,9.5-28.5,28.5v284.3
					c0,19,9.5,28.4,28.5,28.4c18.9,0,28.4-9.3,28.4-28.4L273.8,118.6L273.8,118.6z"/>
			</g>
		</g>
		<g>
			<g>
				<path class="st1" d="M246.8,353.3c-18-14.3-39.8-21.3-65.4-21.3c-25.5,0-47.4,7-65.4,21.3c-18,15.3-26.9,33.1-26.9,54
					c0,20.9,8.9,38.1,26.9,52.5c18,14.3,39.9,21.3,65.4,21.3c25.6,0,47.4-7,65.4-21.3c18.1-14.4,27-31.7,27-52.5
					C273.8,386.3,264.9,368.5,246.8,353.3z"/>
			</g>
		</g>
		<g>
			<g>
				<path class="st2" d="M137.3,340.6l-17.3,9.8l28.8,67.6l13.1-18.4L137.3,340.6z"/>
			</g>
		</g>
	</g>
	<g>
		<g>
			<g>
				<path class="st3" d="M206.9,99.3l-12.6,68.4c30.8-20.8,60.6-25.7,89.6-14.5c14.3,5.4,25.6,13,34.1,22.8L297,99.3
					c-17.8-13.8-38.1-17.9-61.2-12.5c-6.9,1.9-14,4.3-20.8,7.8L206.9,99.3z"/>
			</g>
		</g>
		<g>
			<g>
				<path class="st4" d="M311.6,125.4L297,99.3c4.9,12.6,1.1,31.9-11.1,57c-24.6,50.3-80.1,106.6-165.8,168.9l37.6,94.7
					c26.8-30.7,53.9-63.3,81.2-97.9c54.6-69.3,82.8-114,84.4-134.1C324.9,168,321.2,147.1,311.6,125.4z"/>
			</g>
		</g>
	</g>
	<g>
		<g>
			<g>
				<g>
					<path class="st3" d="M253.2,205.5l-26.6,35.7l34.6,48.1l31.1-40L253.2,205.5z"/>
				</g>
			</g>
		</g>
	</g>
	<g>
		<g>
			<g>
				<g>
					<path class="st3" d="M238.3,219.6L208,253.5l39.2,57.9l34.4-43.1L238.3,219.6z"/>
				</g>
			</g>
		</g>
	</g>
	<g>
		<g>
			<g>
				<path class="st4" d="M206.9,99.3c-6.8,10.2-13.2,22.2-19,35.4c-11.5,26.5-15.1,47-9.9,62c7.6,22.2,35.9,63.1,85,122.7
					c24.6,29.8,48.1,57.4,71.2,82.5l27-87.4c-72.3-53.2-119.6-104.7-142.1-155.5C208,133.9,203.9,113.8,206.9,99.3z"/>
			</g>
		</g>
	</g>
	<g>
		<g>
			<g>
				<path class="st0" d="M322,229.5c20,29.3,24.4,54.4,12.9,75.2c-3.6,6.6-2.7,12.2,2.9,17.1c4.7,4.7,10.3,5.3,17.1,1.4
					c45.5-24.6,68.3-58.4,68.3-101.1c0-42.4-61.7-105.5-184.7-188.9c-4.9-2.9-9.7-2.9-14.3,0c-4.7,2.9-7.1,7-7.1,13v103.6
					c0,8.6,2.9,13.3,8.6,14.3C267.2,178.4,299.4,200.2,322,229.5z"/>
			</g>
		</g>
	</g>
</g>
</svg>
