<?xml version="1.0" encoding="utf-8"?>
<!-- Generator: Adobe Illustrator 24.3.0, SVG Export Plug-In . SVG Version: 6.00 Build 0)  -->
<svg version="1.1" id="图层_1" focusable="false" xmlns="http://www.w3.org/2000/svg" xmlns:xlink="http://www.w3.org/1999/xlink"
	 x="0px" y="0px" viewBox="0 0 512 512" style="enable-background:new 0 0 512 512;" xml:space="preserve">
<style type="text/css">
	.st0{fill:#CCCCCC;}
</style>
<path class="st0" d="M481,376H166v-15c0-8.2-6.8-15-15-15h-30c-8.2,0-15,6.8-15,15v15H31c-8.2,0-15,6.8-15,15v30c0,8.2,6.8,15,15,15
	h75v15c0,8.2,6.8,15,15,15h30c8.2,0,15-6.8,15-15v-15h315c8.2,0,15-6.8,15-15v-30C496,382.8,489.2,376,481,376z M481,226h-75v-15
	c0-8.2-6.8-15-15-15h-30c-8.2,0-15,6.8-15,15v15H31c-8.2,0-15,6.8-15,15v30c0,8.2,6.8,15,15,15h315v15c0,8.2,6.8,15,15,15h30
	c8.2,0,15-6.8,15-15v-15h75c8.2,0,15-6.8,15-15v-30C496,232.8,489.2,226,481,226z M481,76H286V61c0-8.2-6.8-15-15-15h-30
	c-8.2,0-15,6.8-15,15v15H31c-8.2,0-15,6.8-15,15v30c0,8.2,6.8,15,15,15h195v15c0,8.2,6.8,15,15,15h30c8.2,0,15-6.8,15-15v-15h195
	c8.2,0,15-6.8,15-15V91C496,82.8,489.2,76,481,76z"/>
</svg>
