<?xml version="1.0" encoding="utf-8"?>
<!-- Generator: Adobe Illustrator 24.3.0, SVG Export Plug-In . SVG Version: 6.00 Build 0)  -->
<svg version="1.1" id="图层_1" focusable="false" xmlns="http://www.w3.org/2000/svg"
	xmlns:xlink="http://www.w3.org/1999/xlink" x="0px" y="0px" viewBox="0 0 200 200"
	style="enable-background:new 0 0 200 200;" xml:space="preserve">
	<style type="text/css">
		.st0 {
			fill: currentColor;
		}
	</style>
	<path class="st0" d="M100,20c-44.2,0-80,35.8-80,80s35.8,80,80,80s80-35.8,80-80S144.2,20,100,20z M129.8,121L129.8,121l-6.5,8.1
	c-1.8,2.2-5,2.6-7.3,0.8c0,0,0,0,0,0l0,0l-21.6-16c-3.1-2.4-4.8-6.2-4.8-10.1V53.5c0-2.9,2.3-5.2,5.2-5.2h10.3
	c2.9,0,5.2,2.3,5.2,5.2V100l18.7,13.7C131.3,115.5,131.6,118.7,129.8,121C129.8,121,129.8,121,129.8,121z" />
</svg>