<?xml version="1.0" encoding="utf-8"?>
<!-- Generator: Adobe Illustrator 24.3.0, SVG Export Plug-In . SVG Version: 6.00 Build 0)  -->
<svg version="1.1" id="图层_1" xmlns="http://www.w3.org/2000/svg" xmlns:xlink="http://www.w3.org/1999/xlink" x="0px" y="0px"
	 viewBox="0 0 200 200" style="enable-background:new 0 0 200 200;" xml:space="preserve">
<style type="text/css">
	.st0{fill:#0089CA;}
	.st1{fill:#007BB7;}
	.st2{fill:#287BAD;}
</style>
<g>
	<path class="st0" d="M178.4,94.9c0-20.8-7.3-38.4-21.9-53.1C141.9,27.3,124.2,20,103.5,20c-9.6,0-18.5,1.6-26.8,4.7h0.1
		c-9.6,3.5-18.3,9.2-26.2,17v0.1l-3.3,3.4l24.4,15.6l-9.3,14.7l-0.2,0.3c-0.7,1.2-1.4,2.4-2,3.7l-2.2,6.2l-0.5,2.2h6.2l1.6-5.7
		l0.1-0.3c1.9-5.7,5.2-10.9,9.8-15.5H75c4.2-4.2,8.9-7.3,14-9.3c4.4-1.7,9.2-2.5,14.4-2.5c11.1,0,20.6,4,28.5,11.8
		c7.8,7.9,11.7,17.4,11.7,28.4c0,8.1-2.1,15.4-6.3,21.7L119.5,91L91,110.9l48.3,69.1l28.5-19.9l-9.7-13.9
		C171.7,131.9,178.4,114.8,178.4,94.9z"/>
	<path class="st1" d="M42.5,42.1l-9.4,14.7c-6,9.4-9.6,19.9-11,31.8c-2.3,20.4,2.8,38.8,15.7,55h0.1c12.8,16.3,29.6,25.6,50.1,28
		c6.4,0.7,12.7,0.7,18.8-0.1l17.2-2.3l-0.1-1.2l-21.6-31c-3.3,0.4-6.7,0.4-10.2,0c-11.1-1.2-20-6.2-26.9-14.9l0,0
		c-6.9-8.7-9.7-18.5-8.5-29.6v-0.1c0.1-1.5,0.5-3.1,0.7-4.5H27.6L32,71.8c3.1-9.7,8.1-18.5,15.3-26.5L42.5,42.1z"/>
	<path class="st2" d="M32,71.8l-4.4,16.1h29.8l0.5-2.2l2.2-6.2c0.6-1.3,1.3-2.5,2-3.7l0.2-0.3l9.3-14.7L47.3,45.2
		C40.2,53.2,35.1,62.1,32,71.8z"/>
</g>
</svg>
