<?xml version="1.0" encoding="utf-8"?>
<!-- Generator: Adobe Illustrator 24.3.0, SVG Export Plug-In . SVG Version: 6.00 Build 0)  -->
<svg version="1.1" id="图层_1" focusable="false" xmlns="http://www.w3.org/2000/svg"
	xmlns:xlink="http://www.w3.org/1999/xlink" x="0px" y="0px" viewBox="0 0 200 200"
	style="enable-background:new 0 0 200 200;" xml:space="preserve">
	<style type="text/css">
		.st0 {
			fill: currentColor;
		}
	</style>
	<path class="st0" d="M180,68.7V60c0-4.4-3.6-8-8-8H28c-4.4,0-8,3.6-8,8v8.7c4.6,1.7,8,6,8,11.3s-3.4,9.6-8,11.3V116h160V91.3
	c-4.6-1.7-8-6-8-11.3S175.4,70.4,180,68.7z M76,100H60V68h16V100z M108,100H92V68h16V100z M140,100h-16V68h16V100z M20,148h16v-6.7
	c0-2.2,1.8-4,4-4s4,1.8,4,4v6.7h32v-6.7c0-2.2,1.8-4,4-4s4,1.8,4,4v6.7h32v-6.7c0-2.2,1.8-4,4-4s4,1.8,4,4v6.7h32v-6.7
	c0-2.2,1.8-4,4-4s4,1.8,4,4v6.7h16v-24H20V148z" />
</svg>