<?xml version="1.0" encoding="utf-8"?>
<!-- Generator: Adobe Illustrator 24.3.0, SVG Export Plug-In . SVG Version: 6.00 Build 0)  -->
<svg version="1.1" id="图层_1" xmlns="http://www.w3.org/2000/svg" xmlns:xlink="http://www.w3.org/1999/xlink" x="0px" y="0px"
	 viewBox="0 0 256 256" style="enable-background:new 0 0 256 256;" xml:space="preserve">
<style type="text/css">
	.st0{fill:#3E78D0;}
	.st1{fill:#1B3F74;}
	.st2{fill:#2B62B4;}
</style>
<g>
	<path class="st0" d="M244.4,119.5c0-30.6-10.7-56.6-32.3-78.2c-21.5-21.5-47.7-32.2-78.2-32.2c-14.2,0-27.3,2.3-39.5,7h0.1
		c-14.1,5.2-27,13.6-38.6,25.1v0.1l-4.8,5l36,23L73.4,90.9l-0.3,0.5c-1.1,1.8-2.1,3.6-3,5.5l-3.3,9.1l-0.8,3.2h9.2l2.3-8.4l0.1-0.4
		c2.8-8.4,7.6-16.1,14.5-22.8H92c6.2-6.2,13.1-10.8,20.7-13.7c6.5-2.5,13.6-3.7,21.2-3.7c16.4,0,30.4,5.9,42,17.4
		c11.5,11.6,17.3,25.6,17.3,41.9c0,11.9-3.1,22.7-9.3,32l-26.4-37.8L115.6,143l71.2,101.9l42-29.3l-14.3-20.5
		C234.4,174,244.4,148.8,244.4,119.5z"/>
	<path class="st1" d="M44,41.7L30.2,63.3C21.4,77.1,16,92.7,14,110.2c-3.4,30.1,4.2,57.2,23.2,81h0.1c18.9,24,43.6,37.7,73.9,41.2
		c9.5,1.1,18.7,1,27.7-0.1l25.3-3.4l-0.2-1.7l-31.9-45.7c-4.9,0.6-9.9,0.6-15,0c-16.3-1.8-29.5-9.2-39.7-22l0,0
		c-10.2-12.8-14.3-27.3-12.5-43.6v-0.1c0.2-2.2,0.7-4.5,1.1-6.6H22.1l6.5-23.8c4.5-14.3,12-27.3,22.5-39.1L44,41.7z"/>
	<path class="st2" d="M28.6,85.4l-6.5,23.8H66l0.8-3.2l3.3-9.1c0.9-1.9,1.9-3.7,3-5.5l0.3-0.5l13.7-21.6l-36-23
		C40.6,58.1,33.1,71.1,28.6,85.4z"/>
</g>
</svg>
