<svg height="64" viewBox="0 0 128 128" width="64" xmlns="http://www.w3.org/2000/svg"
    xmlns:xlink="http://www.w3.org/1999/xlink">
    <path
        d="m64.84375 16.53125c-.951456.022884-1.672364.445742-2.5625 1.3125l-50.78125 49.46875c-1.9826582 1.930587-2.4379997 7.830487-.96875 11.65625 1.435901 3.738927 3.440265 5.163524 6.25 6.59375l49.90625 25.40625c2.503743.71535 3.9217.88214 5.53125-.90625l45.09375-49.15625c1.25188-1.609555.93789-4.376266.1875-5.1875-.76805-.830317-2.65625-2.25-2.65625-2.25l.125 2.75c1.17813.196352 1.79179 1.458213.71875 2.53125l-44.15625 47.03125c-1.60955 1.78839-2.689024 1.73794-4.65625.84375l-49.75-26.03125c-3.448739-1.804369-3.359957-7.161338-2.65625-9.15625.809189-2.293939 2.832212-2.895636 4.65625-1.96875l45.78125 23.25c3.04026 1.430709 4.487595 1.972487 6.8125-.53125l44.875-47.0625c1.60955-1.609554 2.96542-4.142689.34375-5.34375l-48.15625-22.0625c-1.796487-.823023-2.986045-1.210384-3.9375-1.1875zm5.34375 11.65625 7.75 3.875-13.03125 19.25-5.5-2.71875 2.625-3.3125-1.90625-.96875-3.21875 3.03125-5.5625-2.75zm.5 6.03125c-3.621199 3.120131-6.219459 5.402926-7.78125 6.90625l1.84375.9375c1.551508-2.144101 3.53051-4.757156 5.9375-7.84375zm18.53125 3.40625 9.40625 4.6875-3.21875 3.53125-13.6875 8.65625 4.03125 2-3.25 3.5625-9.875-4.9375 2.3125-2.5625 14.6875-9.5625-3.65625-1.8125zm-16 5.03125 6.75 3.375-2.78125 3.0625-6.75-3.375z"
        fill="currentColor" />
</svg>