<svg height="64" viewBox="0 0 128 128" width="64" xmlns="http://www.w3.org/2000/svg"
    xmlns:xlink="http://www.w3.org/1999/xlink">
    <path
        d="m28.5 11.25c-2.901875.29359-5.125 2.765184-5.125 5.75v94c0 3.1838 2.53494 5.75 5.71875 5.75h69.8125c3.1838 0 5.71875-2.5662 5.71875-5.75v-70.625h-21.03125c-4.30611 0-8.0625-3.141109-8.0625-7.3125v-21.8125h-46.4375c-.198988 0-.400292-.01957-.59375 0zm51.03125 0v21.8125c0 1.714122 1.63197 3.3125 4.0625 3.3125h21.03125zm-9.125 40.5c1.172506.000043 2.079963.433461 2.75 1.25.669993.795685.876232 1.775325.625 2.96875-.230341 1.214441-.838749 2.256268-1.84375 3.09375-1.005043.816617-2.129366 1.218784-3.34375 1.21875-1.21442.000034-2.132188-.391821-2.78125-1.1875-.628154-.816545-.813771-1.848059-.5625-3.0625.25124-1.256239.849337-2.266815 1.8125-3.0625.984068-.795601 2.10839-1.218707 3.34375-1.21875zm.4375 12.4375c.900312.000031 1.250921.474697 1.0625 1.375-.08377.397851-.26939.995947-.5625 1.8125-.272215.79567-.447518 1.393766-.53125 1.8125-.272214 1.381931-.726256 3.46527-1.3125 6.25-.586282 2.763831-1.009074 4.836857-1.28125 6.21875-.670033 3.266336-1.082512 5.504354-1.25 6.71875-.209396 1.40285.089647 2.351868.90625 2.8125.774687.188445 1.548088.384373 2.34375.59375.795623.188444 1.146545.683421 1 1.5-.230339 1.130651-2.117748 1.687499-5.65625 1.6875-3.8526-.000001-7.122134-.061868-9.78125-.1875-1.29816-.06281-1.844696-.55779-1.65625-1.5.1675-.837517.724348-1.353118 1.6875-1.5625 1.59128-.355943 2.478426-.562182 2.625-.625 1.025952-.523445 1.68592-1.60652 2-3.21875.230307-1.193457.591228-2.977748 1.09375-5.34375.5025-2.365978.86342-4.119018 1.09375-5.3125.586251-2.91036.93686-4.849331 1.0625-5.8125.188429-1.402821-.47154-2.269342-2-2.5625-1.507545-.293105-2.157201-.891201-1.96875-1.8125.143255-.777688.69277-1.237419 1.65625-1.375-.011457.032077.768157.062526 2.34375.0625.816568.000029 2.033698-.247459 3.625-.75 1.612207-.502482 2.788089-.781219 3.5-.78125z"
        fill="currentColor" />
</svg>