<?xml version="1.0" encoding="utf-8"?>
<!-- Generator: Adobe Illustrator 24.3.0, SVG Export Plug-In . SVG Version: 6.00 Build 0)  -->
<svg version="1.1" id="图层_1" focusable="false" xmlns="http://www.w3.org/2000/svg"
	xmlns:xlink="http://www.w3.org/1999/xlink" x="0px" y="0px" viewBox="0 0 200 200"
	style="enable-background:new 0 0 200 200;" xml:space="preserve">
	<style type="text/css">
		.st0 {
			fill: currentColor;
		}
	</style>
	<path class="st0" d="M30,160c0,5.5,4.5,10,10,10h120c5.5,0,10-4.5,10-10V70H30V160z M80,93.8c0-2.1,1.7-3.8,3.8-3.8h32.5
	c2.1,0,3.8,1.7,3.8,3.8v2.5c0,2.1-1.7,3.8-3.8,3.8H83.8c-2.1,0-3.8-1.7-3.8-3.8V93.8z M170,30H30c-5.5,0-10,4.5-10,10v15
	c0,2.8,2.2,5,5,5h150c2.8,0,5-2.2,5-5V40C180,34.5,175.5,30,170,30z" />
</svg>