<?xml version="1.0" encoding="utf-8"?>
<!-- Generator: Adobe Illustrator 24.3.0, SVG Export Plug-In . SVG Version: 6.00 Build 0)  -->
<svg version="1.1" id="图层_1" focusable="false" xmlns="http://www.w3.org/2000/svg"
	xmlns:xlink="http://www.w3.org/1999/xlink" x="0px" y="0px" viewBox="0 0 200 200"
	style="enable-background:new 0 0 200 200;" xml:space="preserve">
	<style type="text/css">
		.st0 {
			fill: currentColor;
		}
	</style>
	<path class="st0" d="M170,70H30c-5.5,0-10-4.5-10-10V40c0-5.5,4.5-10,10-10h140c5.5,0,10,4.5,10,10v20C180,65.5,175.5,70,170,70z
	 M155,42.5c-4.1,0-7.5,3.4-7.5,7.5s3.4,7.5,7.5,7.5s7.5-3.4,7.5-7.5S159.1,42.5,155,42.5z M135,42.5c-4.1,0-7.5,3.4-7.5,7.5
	s3.4,7.5,7.5,7.5s7.5-3.4,7.5-7.5S139.1,42.5,135,42.5z M170,120H30c-5.5,0-10-4.5-10-10V90c0-5.5,4.5-10,10-10h140
	c5.5,0,10,4.5,10,10v20C180,115.5,175.5,120,170,120z M155,92.5c-4.1,0-7.5,3.4-7.5,7.5s3.4,7.5,7.5,7.5s7.5-3.4,7.5-7.5
	S159.1,92.5,155,92.5z M135,92.5c-4.1,0-7.5,3.4-7.5,7.5s3.4,7.5,7.5,7.5s7.5-3.4,7.5-7.5S139.1,92.5,135,92.5z M170,170H30
	c-5.5,0-10-4.5-10-10v-20c0-5.5,4.5-10,10-10h140c5.5,0,10,4.5,10,10v20C180,165.5,175.5,170,170,170z M155,142.5
	c-4.1,0-7.5,3.4-7.5,7.5s3.4,7.5,7.5,7.5s7.5-3.4,7.5-7.5S159.1,142.5,155,142.5z M135,142.5c-4.1,0-7.5,3.4-7.5,7.5
	s3.4,7.5,7.5,7.5s7.5-3.4,7.5-7.5S139.1,142.5,135,142.5z" />
</svg>