<?xml version="1.0" encoding="utf-8"?>
<!-- Generator: Adobe Illustrator 24.3.0, SVG Export Plug-In . SVG Version: 6.00 Build 0)  -->
<svg version="1.1" id="图层_1" focusable="false" xmlns="http://www.w3.org/2000/svg"
	xmlns:xlink="http://www.w3.org/1999/xlink" x="0px" y="0px" viewBox="0 0 200 200"
	style="enable-background:new 0 0 200 200;" xml:space="preserve">
	<style type="text/css">
		.st0 {
			fill: currentColor;
		}
	</style>
	<path class="st0" d="M144.5,92.5l-53-53C89.3,37.3,86.2,36,83,36H32c-6.6,0-12,5.4-12,12v51c0,3.2,1.3,6.2,3.5,8.5l53,53
	c4.7,4.7,12.3,4.7,17,0l51-51C149.2,104.8,149.2,97.2,144.5,92.5L144.5,92.5z M48,76c-6.6,0-12-5.4-12-12s5.4-12,12-12s12,5.4,12,12
	S54.6,76,48,76z M176.5,109.5l-51,51c-4.7,4.7-12.3,4.7-17,0l-0.1-0.1l43.5-43.5c4.2-4.2,6.6-9.9,6.6-15.9c0-6-2.3-11.7-6.6-15.9
	L102.8,36H115c3.2,0,6.2,1.3,8.5,3.5l53,53C181.2,97.2,181.2,104.8,176.5,109.5L176.5,109.5z" />
</svg>