<?xml version="1.0" encoding="utf-8"?>
<!-- Generator: Adobe Illustrator 24.3.0, SVG Export Plug-In . SVG Version: 6.00 Build 0)  -->
<svg version="1.1" id="图层_1" focusable="false" xmlns="http://www.w3.org/2000/svg"
	xmlns:xlink="http://www.w3.org/1999/xlink" x="0px" y="0px" viewBox="0 0 200 200"
	style="enable-background:new 0 0 200 200;" xml:space="preserve">
	<style type="text/css">
		.st0 {
			fill: currentColor;
		}
	</style>
	<path class="st0" d="M25,110c-2.8,0-5,2.2-5,5v10c0,2.8,2.2,5,5,5h35v-20H25z M177.8,52.8l-30.6-30.6c-1.4-1.4-3.3-2.2-5.3-2.2H140
	v40h40v-1.9C180,56.1,179.2,54.2,177.8,52.8z M130,62.5V20H67.5c-4.2,0-7.5,3.3-7.5,7.5V110h40V89.6c0-4.5,5.4-6.7,8.6-3.5
	l29.9,30.2c2.1,2.1,2.1,5.4,0,7.5l-29.9,30.1c-3.2,3.2-8.6,0.9-8.6-3.5V130H60v42.5c0,4.2,3.3,7.5,7.5,7.5h105
	c4.2,0,7.5-3.3,7.5-7.5V70h-42.5C133.4,70,130,66.6,130,62.5z" />
</svg>