<?xml version="1.0" encoding="utf-8"?>
<!-- Generator: Adobe Illustrator 24.3.0, SVG Export Plug-In . SVG Version: 6.00 Build 0)  -->
<svg version="1.1" id="图层_1" xmlns="http://www.w3.org/2000/svg" xmlns:xlink="http://www.w3.org/1999/xlink" x="0px"
	y="0px" viewBox="0 0 200 200" style="enable-background:new 0 0 200 200;" xml:space="preserve">
	<style type="text/css">
		.st0 {
			fill: none;
		}
		.st1 {
			fill: currentColor;
		}
	</style>
	<path class="st0" d="M20,20h160v160H20V20z" />
	<path class="st1" d="M50,90c-5.5,0-10,4.5-10,10s4.5,10,10,10s10-4.5,10-10S55.5,90,50,90z M150,90c-5.5,0-10,4.5-10,10
	s4.5,10,10,10s10-4.5,10-10S155.5,90,150,90z M100,90c-5.5,0-10,4.5-10,10s4.5,10,10,10s10-4.5,10-10S105.5,90,100,90z" />
</svg>