<?xml version="1.0" encoding="utf-8"?>
<!-- Generator: Adobe Illustrator 24.3.0, SVG Export Plug-In . SVG Version: 6.00 Build 0)  -->
<svg version="1.1" id="图层_1" focusable="false" xmlns="http://www.w3.org/2000/svg"
	xmlns:xlink="http://www.w3.org/1999/xlink" x="0px" y="0px" viewBox="0 0 200 200"
	style="enable-background:new 0 0 200 200;" xml:space="preserve">
	<style type="text/css">
		.st0 {
			fill: currentColor;
		}
	</style>
	<path class="st0" d="M168.6,82.9h-51.4V31.4c0-6.3-5.1-11.4-11.4-11.4H94.3c-6.3,0-11.4,5.1-11.4,11.4v51.4H31.4
	C25.1,82.9,20,88,20,94.3v11.4c0,6.3,5.1,11.4,11.4,11.4h51.4v51.4c0,6.3,5.1,11.4,11.4,11.4h11.4c6.3,0,11.4-5.1,11.4-11.4v-51.4
	h51.4c6.3,0,11.4-5.1,11.4-11.4V94.3C180,88,174.9,82.9,168.6,82.9z" />
</svg>