<?xml version="1.0" encoding="utf-8"?>
<!-- Generator: Adobe Illustrator 24.3.0, SVG Export Plug-In . SVG Version: 6.00 Build 0)  -->
<svg version="1.1" id="图层_1" focusable="false" xmlns="http://www.w3.org/2000/svg"
	xmlns:xlink="http://www.w3.org/1999/xlink" x="0px" y="0px" viewBox="0 0 200 200"
	style="enable-background:new 0 0 200 200;" xml:space="preserve">
	<style type="text/css">
		.st0 {
			fill: currentColor;
		}
	</style>
	<path class="st0" d="M75,162c0,2,0.6,3.9,1.7,5.5l5.3,8c1.9,2.8,5,4.5,8.3,4.5h19.3c3.3,0,6.5-1.7,8.3-4.5l5.3-8
	c1.1-1.6,1.7-3.6,1.7-5.5l0-12H75C75,150,75,162,75,162z M45,75c0,13.9,5.1,26.5,13.6,36.2c5.2,5.9,13.2,18.2,16.3,28.6
	c0,0.1,0,0.2,0,0.2H125c0-0.1,0-0.2,0-0.2c3.1-10.4,11.2-22.7,16.3-28.6c8.5-9.7,13.6-22.3,13.6-36.2c0-30.4-24.7-55.1-55.2-55
	C68,20.1,45,45.9,45,75z M100,50c-13.8,0-25,11.2-25,25c0,2.8-2.2,5-5,5c-2.8,0-5-2.2-5-5c0-19.3,15.7-35,35-35c2.8,0,5,2.2,5,5
	S102.8,50,100,50z" />
</svg>