<?xml version="1.0" encoding="utf-8"?>
<!-- Generator: Adobe Illustrator 24.3.0, SVG Export Plug-In . SVG Version: 6.00 Build 0)  -->
<svg version="1.1" id="图层_1" focusable="false" xmlns="http://www.w3.org/2000/svg"
	xmlns:xlink="http://www.w3.org/1999/xlink" x="0px" y="0px" viewBox="0 0 200 200"
	style="enable-background:new 0 0 200 200;" xml:space="preserve">
	<style type="text/css">
		.st0 {
			fill: currentColor;
		}
	</style>
	<path class="st0" d="M180,100c0,44.2-35.8,80-80,80s-80-35.8-80-80c0-44.2,35.8-80,80-80S180,55.8,180,100z M102.1,46.5
	c-17.6,0-28.8,7.4-37.6,20.6c-1.1,1.7-0.8,4,0.9,5.2l11.2,8.5c1.7,1.3,4.1,1,5.4-0.7c5.8-7.3,9.7-11.5,18.5-11.5
	c6.6,0,14.7,4.2,14.7,10.6c0,4.8-4,7.3-10.5,11c-7.6,4.3-17.6,9.5-17.6,22.8v1.3c0,2.1,1.7,3.9,3.9,3.9H109c2.1,0,3.9-1.7,3.9-3.9
	v-0.4c0-9.2,26.8-9.6,26.8-34.4C139.7,60.6,120.3,46.5,102.1,46.5z M100,126.5c-8.2,0-14.8,6.7-14.8,14.8c0,8.2,6.7,14.8,14.8,14.8
	s14.8-6.7,14.8-14.8C114.8,133.1,108.2,126.5,100,126.5z" />
</svg>