<?xml version="1.0" encoding="utf-8"?>
<!-- Generator: Adobe Illustrator 24.3.0, SVG Export Plug-In . SVG Version: 6.00 Build 0)  -->
<svg version="1.1" id="图层_1" xmlns="http://www.w3.org/2000/svg" xmlns:xlink="http://www.w3.org/1999/xlink" x="0px" y="0px"
	 viewBox="0 0 96 96" style="enable-background:new 0 0 96 96;" xml:space="preserve">
<style type="text/css">
	.st0{fill:none;stroke:#E60012;stroke-width:3;stroke-linecap:round;stroke-linejoin:round;stroke-miterlimit:10;}
	.st1{fill:#010101;}
</style>
<g>
	<polyline class="st0" points="84.9,88.3 66.4,46.7 30,46.7 11.5,88.3 	"/>
	<g>
		<g>
			<path class="st1" d="M10.8,12.3h3.1v22.3h-3.1V12.3z M12.1,22.1h7.6c0.6,0,1.1-0.1,1.6-0.4c0.5-0.3,0.8-0.7,1.1-1.2
				c0.2-0.5,0.4-1.1,0.4-1.8s-0.1-1.3-0.4-1.8c-0.3-0.5-0.6-0.9-1.1-1.2s-1-0.4-1.6-0.4h-7.6v-3h7.5c1.3,0,2.4,0.3,3.4,0.8
				s1.7,1.3,2.3,2.3c0.5,1,0.8,2.1,0.8,3.4c0,1.3-0.3,2.4-0.8,3.4c-0.5,1-1.3,1.7-2.3,2.3c-1,0.5-2.1,0.8-3.4,0.8h-7.5V22.1z
				 M18.2,24.4l3.1-0.7L27,34.5h-3.7L18.2,24.4z"/>
			<path class="st1" d="M33.7,33.9c-1-0.6-1.8-1.4-2.4-2.4c-0.5-1.1-0.8-2.4-0.8-3.9v-1.8c0-1.6,0.3-2.9,0.8-4s1.3-2,2.3-2.5
				c1-0.6,2.2-0.9,3.6-0.9c1.3,0,2.5,0.3,3.4,1s1.7,1.6,2.2,2.9c0.5,1.3,0.7,2.8,0.7,4.5v1H32.7v-2.5h7.8c-0.1-1.3-0.4-2.3-1-3
				c-0.6-0.7-1.4-1.1-2.3-1.1c-1.2,0-2.1,0.4-2.8,1.2c-0.6,0.8-1,1.9-1,3.3v2c0,1.3,0.3,2.3,1,3s1.7,1.1,3,1.1
				c0.6,0,1.3-0.1,1.9-0.4c0.6-0.3,1.2-0.6,1.7-1.1l2.1,2.1c-0.8,0.8-1.7,1.3-2.7,1.8s-2,0.6-3,0.6C35.9,34.8,34.7,34.5,33.7,33.9z"
				/>
			<path class="st1" d="M50.7,34.5c-0.8-0.2-1.6-0.5-2.3-0.8c-0.7-0.4-1.4-0.8-2-1.4l1.9-2.3c0.9,0.7,1.7,1.1,2.6,1.5
				c0.8,0.3,1.7,0.5,2.5,0.5c1.2,0,2.2-0.2,2.8-0.6c0.6-0.4,0.9-1,0.9-1.7c0-0.5-0.2-0.9-0.5-1.1c-0.3-0.3-0.8-0.4-1.3-0.5
				c-0.5-0.1-1.2-0.2-2.1-0.2c-0.1,0-0.2,0-0.3,0c-0.1,0-0.2,0-0.3,0c0,0-0.1,0-0.1,0s-0.1,0-0.1,0c-1-0.1-1.9-0.2-2.6-0.5
				c-0.7-0.2-1.3-0.6-1.8-1.2c-0.5-0.6-0.7-1.5-0.7-2.6c0-1.1,0.2-2.1,0.7-2.8c0.5-0.7,1.1-1.3,2.1-1.7c0.9-0.4,2-0.6,3.4-0.6
				c0.8,0,1.6,0.1,2.4,0.2c0.8,0.2,1.5,0.4,2.2,0.7c0.7,0.3,1.3,0.7,2,1.1l-1.9,2.3c-0.8-0.5-1.6-0.9-2.4-1.1
				c-0.8-0.3-1.5-0.4-2.3-0.4c-1.1,0-1.9,0.2-2.4,0.5c-0.5,0.4-0.8,0.9-0.8,1.6c0,0.4,0.2,0.8,0.5,1c0.3,0.2,0.7,0.4,1.1,0.4
				c0.5,0.1,1.1,0.1,2,0.2c0.1,0,0.1,0,0.2,0c0.1,0,0.1,0,0.2,0c0,0,0.1,0,0.1,0s0.1,0,0.1,0c1.1,0.1,2.1,0.2,2.8,0.4s1.4,0.7,2,1.3
				s0.8,1.6,0.8,2.9c0,1.1-0.2,2.1-0.7,2.8s-1.2,1.3-2.2,1.7c-1,0.4-2.2,0.6-3.7,0.6C52.4,34.8,51.5,34.7,50.7,34.5z"/>
			<path class="st1" d="M66.7,33.9c-1-0.6-1.8-1.4-2.4-2.4c-0.5-1.1-0.8-2.4-0.8-3.9v-1.8c0-1.6,0.3-2.9,0.8-4s1.3-2,2.3-2.5
				c1-0.6,2.2-0.9,3.6-0.9c1.3,0,2.5,0.3,3.4,1c0.9,0.7,1.7,1.6,2.2,2.9c0.5,1.3,0.7,2.8,0.7,4.5v1H65.8v-2.5h7.8
				c-0.1-1.3-0.4-2.3-1-3c-0.6-0.7-1.4-1.1-2.3-1.1c-1.2,0-2.1,0.4-2.8,1.2c-0.6,0.8-1,1.9-1,3.3v2c0,1.3,0.3,2.3,1,3
				c0.7,0.7,1.7,1.1,3,1.1c0.6,0,1.3-0.1,1.9-0.4c0.6-0.3,1.2-0.6,1.7-1.1l2.1,2.1c-0.8,0.8-1.7,1.3-2.7,1.8s-2,0.6-3,0.6
				C69,34.8,67.8,34.5,66.7,33.9z"/>
			<path class="st1" d="M79.6,18.6h7.2v2.8h-7.2V18.6z M82.1,33.6c-0.6-0.7-0.9-1.8-0.9-3.1V14h3.1v16.4c0,0.4,0.1,0.7,0.2,0.9
				c0.2,0.2,0.4,0.3,0.7,0.3h1.5v3H85C83.7,34.6,82.7,34.3,82.1,33.6z"/>
		</g>
	</g>
</g>
</svg>
