<?xml version="1.0" encoding="UTF-8" standalone="no"?>
<svg width="66px" height="65px" viewBox="0 0 66 65" version="1.1" xmlns="http://www.w3.org/2000/svg" xmlns:xlink="http://www.w3.org/1999/xlink" xmlns:sketch="http://www.bohemiancoding.com/sketch/ns">
    <!-- Generator: Sketch 3.0.3 (7891) - http://www.bohemiancoding.com/sketch -->
    <title>Pencil</title>
    <desc>Created with Sketch.</desc>
    <defs></defs>
    <g id="Page-1" stroke="none" stroke-width="1" fill="none" fill-rule="evenodd" sketch:type="MSPage">
        <g id="Pencil" sketch:type="MSLayerGroup" transform="translate(2.000000, 1.000000)" stroke="#6B6C6E" stroke-width="2">
            <path d="M7.5,43.7 L0,62 L18.3,54.5" id="Shape" sketch:type="MSShapeGroup"></path>
            <path d="M19.4,53.9 C18.5,54.8 17.1,54.8 16.2,53.9 L17,49.9 L12.2,49.9 L12.2,45.1 L8.2,45.9 C7.3,45 7.3,43.6 8.2,42.7 L50.2,0.7 C51.1,-0.2 52.5,-0.2 53.4,0.7 L61.5,8.8 C62.4,9.7 62.4,11.1 61.5,12 L19.4,53.9 L19.4,53.9 Z" id="Shape" sketch:type="MSShapeGroup"></path>
            <path d="M12.1,45 L48.4,8.7" id="Shape" sketch:type="MSShapeGroup"></path>
            <path d="M17,49.9 L53.3,13.6" id="Shape" sketch:type="MSShapeGroup"></path>
            <path d="M45.2,5.5 L56.5,16.8" id="Shape" sketch:type="MSShapeGroup"></path>
        </g>
    </g>
</svg>