<svg xmlns="http://www.w3.org/2000/svg" viewBox="0 0 24 24">
    <path fill="currentColor"
          d="M15.49,12.05a.75.75,0,0,1,.82.2l6.37,7.06a.75.75,0,0,1-.74,1.23l-3.54-.88-2,3a.75.75,0,0,1-1,.2.74.74,0,0,1-.33-.62v-9.5A.76.76,0,0,1,15.49,12.05Z"
          transform="translate(-1.17 -1.41)"/>
    <path fill="currentColor"
          d="M21.55,6.58a.75.75,0,0,1,1.06,0h0l-1.9-1.9V2.16A.75.75,0,0,0,20,1.41H17.13a.73.73,0,0,0-.74.75V4.68l-1.91,1.9-.37-.37a.75.75,0,0,0-1.06,0L11.28,8a.75.75,0,0,0,0,1.06h0l.34.34-1.91,1.9H7.53l-1.9-1.9L6,9A.75.75,0,0,0,6,8L4.21,6.21a.75.75,0,0,0-1.06,0L1.38,8A.75.75,0,0,0,1.38,9L3.15,10.8a.74.74,0,0,0,1.06,0l.36-.35,1.9,1.9v2.52a.75.75,0,0,0,.75.75h2.83a.73.73,0,0,0,.74-.75V12.35l1.91-1.9.37.37a.75.75,0,0,0,1.06,0L15.9,9.05A.75.75,0,0,0,15.9,8h0l-.34-.34,1.91-1.9h2.2l1.9,1.9h0A.75.75,0,0,1,21.55,6.58Z"
          transform="translate(-1.17 -1.41)"/>
    <path fill="currentColor" d="M22.61,6.58h0a.75.75,0,1,0-1.06,1.06h0a.75.75,0,0,0,1.06,0A.74.74,0,0,0,22.61,6.58Z"/>
</svg>