<svg xmlns="http://www.w3.org/2000/svg" viewBox="0 0 24 24"><path fill="currentColor" d="M5.26,7H2.64a.75.75,0,0,0,.11,1.5H5.91a.74.74,0,0,0,.52-.44l1-2.36L9.8,11.52l0,.1h0a.75.75,0,0,0,1,.26.73.73,0,0,0,.28-.3l2-3.09h1.67a.76.76,0,0,0,.7-.8A.77.77,0,0,0,14.7,7H12.58a.76.76,0,0,0-.55.4L10.61,9.5l-2.42-6,0-.1h0a.75.75,0,0,0-1-.25.76.76,0,0,0-.3.34ZM12.2,17.57l5.9-5.9a2.29,2.29,0,0,1,3.47,3,2.72,2.72,0,0,1-.24.24l-5.9,5.9a2.62,2.62,0,0,1-1.25.71L12.35,22A1.09,1.09,0,0,1,11,20.65l.46-1.83a2.78,2.78,0,0,1,.7-1.25Z"/></svg>