<?xml version="1.0" encoding="utf-8"?>
<!-- Generator: Adobe Illustrator 24.3.0, SVG Export Plug-In . SVG Version: 6.00 Build 0)  -->
<svg version="1.1" id="图层_1" xmlns="http://www.w3.org/2000/svg" xmlns:xlink="http://www.w3.org/1999/xlink" x="0px" y="0px"
	 viewBox="0 0 96 96" style="enable-background:new 0 0 96 96;" xml:space="preserve">
<style type="text/css">
	.st0{fill:none;stroke:#E60012;stroke-width:3;stroke-linecap:round;stroke-linejoin:round;stroke-miterlimit:10;}
	.st1{fill:#020202;}
</style>
<g>
	<line class="st0" x1="69.9" y1="92.5" x2="61.7" y2="92.5"/>
	<polyline class="st0" points="48.2,70.8 69.9,48.6 88,48.6 	"/>
	<line class="st0" x1="69.5" y1="92.1" x2="48.2" y2="70.8"/>
	<line class="st0" x1="69.9" y1="92.1" x2="69.5" y2="92.1"/>
	<line class="st0" x1="69.9" y1="84.7" x2="69.9" y2="92.1"/>
	<line class="st0" x1="69.9" y1="92.5" x2="69.5" y2="92.1"/>
	<line class="st0" x1="69.9" y1="92.1" x2="69.9" y2="92.5"/>
	<line class="st0" x1="34.3" y1="92.9" x2="26.1" y2="92.5"/>
	<line class="st0" x1="26.1" y1="92.5" x2="26.1" y2="92.1"/>
	<line class="st0" x1="26.5" y1="92.1" x2="26.1" y2="92.5"/>
	<line class="st0" x1="26.1" y1="92.1" x2="26.5" y2="92.1"/>
	<line class="st0" x1="26.1" y1="84.7" x2="26.1" y2="92.1"/>
	<polyline class="st0" points="48.2,70.8 26.5,48.6 8,48.6 	"/>
	<line class="st0" x1="26.5" y1="92.1" x2="48.2" y2="70.8"/>
	<g>
		<g>
			<g>
				<path class="st1" d="M15.1,19.3h3.3v23.4h-3.3V19.3z M19.8,35.4c-0.8-0.5-1.3-1.2-1.7-2.1l0.2-3.5c0,0.7,0.1,1.3,0.4,1.8
					s0.6,0.9,1.1,1.2s1.1,0.4,1.8,0.4c1.1,0,1.9-0.3,2.5-1c0.6-0.7,0.9-1.6,0.9-2.8v-3.6c0-1.2-0.3-2.2-0.9-2.8
					c-0.6-0.7-1.4-1-2.5-1c-0.7,0-1.3,0.1-1.8,0.4S19,23,18.7,23.5c-0.3,0.5-0.4,1.1-0.4,1.8L18,22.1c0.5-1,1.2-1.7,2-2.3
					s1.7-0.8,2.7-0.8c1.2,0,2.2,0.3,3,0.8c0.8,0.5,1.5,1.3,1.9,2.3c0.4,1,0.7,2.2,0.7,3.7v3.6c0,1.4-0.2,2.6-0.7,3.6
					c-0.4,1-1.1,1.8-2,2.3s-1.9,0.8-3.1,0.8C21.5,36.1,20.6,35.9,19.8,35.4z"/>
				<path class="st1" d="M32.4,33.1l8.1-10.8c0.5-0.6,0.8-1.3,1.1-1.9c0.3-0.7,0.4-1.3,0.4-1.9v0c0-0.9-0.3-1.7-0.8-2.2
					c-0.5-0.5-1.3-0.8-2.3-0.8c-1,0-1.7,0.3-2.3,0.8s-0.9,1.4-1.1,2.4v0h-3.4v0c0.2-1.3,0.6-2.5,1.2-3.4c0.6-0.9,1.4-1.7,2.3-2.2
					c0.9-0.5,2-0.7,3.3-0.7c1.4,0,2.6,0.2,3.6,0.7c1,0.5,1.7,1.2,2.2,2.1c0.5,0.9,0.8,2,0.8,3.3v0c0,0.8-0.2,1.7-0.5,2.6
					s-0.8,1.8-1.4,2.6l-6.7,9.2h8.8v3.1H32.4V33.1z"/>
				<path class="st1" d="M49.9,19.3h3.3v23.4h-3.3V19.3z M54.6,35.4c-0.8-0.5-1.3-1.2-1.7-2.1l0.2-3.5c0,0.7,0.1,1.3,0.4,1.8
					s0.6,0.9,1.1,1.2s1.1,0.4,1.8,0.4c1.1,0,1.9-0.3,2.5-1c0.6-0.7,0.9-1.6,0.9-2.8v-3.6c0-1.2-0.3-2.2-0.9-2.8
					c-0.6-0.7-1.4-1-2.5-1c-0.7,0-1.3,0.1-1.8,0.4s-0.9,0.6-1.1,1.1c-0.3,0.5-0.4,1.1-0.4,1.8l-0.3-3.2c0.5-1,1.2-1.7,2-2.3
					s1.7-0.8,2.7-0.8c1.2,0,2.2,0.3,3,0.8c0.8,0.5,1.5,1.3,1.9,2.3c0.4,1,0.7,2.2,0.7,3.7v3.6c0,1.4-0.2,2.6-0.7,3.6
					c-0.4,1-1.1,1.8-2,2.3s-1.9,0.8-3.1,0.8C56.3,36.1,55.4,35.9,54.6,35.4z"/>
				<path class="st1" d="M70.2,35.4c-1-0.5-1.8-1.2-2.4-2.1c-0.6-0.9-1-2-1.1-3.3h3.3c0.1,0.7,0.3,1.2,0.6,1.6
					c0.3,0.4,0.7,0.7,1.2,1c0.5,0.2,1.1,0.3,1.8,0.3c1.1,0,1.9-0.3,2.5-0.9c0.6-0.6,0.9-1.4,0.9-2.4V29c0-1.2-0.3-2.1-0.8-2.7
					c-0.6-0.6-1.4-1-2.4-1h-1.7v-3.1h1.7c0.9,0,1.6-0.3,2.1-0.8c0.5-0.5,0.8-1.3,0.8-2.3v-0.7c0-0.9-0.3-1.6-0.8-2.1
					c-0.5-0.5-1.3-0.8-2.3-0.8c-0.6,0-1.1,0.1-1.5,0.3c-0.4,0.2-0.8,0.5-1.1,1c-0.3,0.4-0.5,1-0.7,1.6H67c0.2-1.3,0.6-2.4,1.2-3.3
					c0.6-0.9,1.3-1.6,2.3-2.1c0.9-0.5,1.9-0.7,3.1-0.7c2,0,3.6,0.5,4.7,1.6c1.1,1.1,1.7,2.5,1.7,4.5v0.4c0,1.2-0.3,2.2-0.9,3
					c-0.6,0.9-1.5,1.5-2.7,1.9c1.3,0.3,2.3,0.9,3,1.9c0.7,1,1,2.2,1,3.7v0.4c0,1.4-0.3,2.5-0.8,3.5c-0.5,1-1.3,1.7-2.3,2.2
					c-1,0.5-2.2,0.8-3.6,0.8C72.3,36.1,71.2,35.9,70.2,35.4z"/>
			</g>
		</g>
	</g>
</g>
</svg>
