<?xml version="1.0" encoding="utf-8"?>
<!-- Generator: Adobe Illustrator 24.3.0, SVG Export Plug-In . SVG Version: 6.00 Build 0)  -->
<svg version="1.1" id="图层_1" xmlns="http://www.w3.org/2000/svg" xmlns:xlink="http://www.w3.org/1999/xlink" x="0px" y="0px"
	 viewBox="0 0 96 96" style="enable-background:new 0 0 96 96;" xml:space="preserve">
<style type="text/css">
	.st0{fill:none;stroke:#E60012;stroke-width:3;stroke-linecap:round;stroke-linejoin:round;stroke-miterlimit:10;}
	.st1{fill:none;stroke:#E60012;stroke-linecap:round;stroke-linejoin:round;stroke-miterlimit:10;}
	.st2{fill:#010101;}
</style>
<g>
	<line class="st0" x1="78.2" y1="57.4" x2="69.9" y2="49.2"/>
	<polyline class="st1" points="69.5,92.7 69.9,93.1 69.9,92.7 69.5,92.7 	"/>
	<line class="st0" x1="48.2" y1="71.4" x2="69.5" y2="92.7"/>
	<line class="st0" x1="69.9" y1="49.2" x2="88" y2="49.2"/>
	<line class="st0" x1="48.2" y1="71.4" x2="69.9" y2="49.2"/>
	<line class="st0" x1="18.3" y1="57.4" x2="26.5" y2="49.2"/>
	<line class="st0" x1="26.5" y1="49.2" x2="8" y2="49.2"/>
	<line class="st0" x1="48.2" y1="71.4" x2="26.5" y2="49.2"/>
	<line class="st0" x1="26.5" y1="92.7" x2="48.2" y2="71.4"/>
	<line class="st0" x1="69.9" y1="49.2" x2="78.2" y2="41"/>
	<line class="st0" x1="18.3" y1="41" x2="26.5" y2="49.2"/>
	<g>
		<g>
			<path class="st2" d="M17.5,19.8h3.3v23.4h-3.3V19.8z M22.3,36c-0.8-0.5-1.3-1.2-1.7-2.1l0.2-3.5c0,0.7,0.1,1.3,0.4,1.8
				s0.6,0.9,1.1,1.2s1.1,0.4,1.8,0.4c1.1,0,1.9-0.3,2.5-1c0.6-0.7,0.9-1.6,0.9-2.8v-3.6c0-1.2-0.3-2.2-0.9-2.8c-0.6-0.7-1.4-1-2.5-1
				c-0.7,0-1.3,0.1-1.8,0.4s-0.9,0.6-1.1,1.1c-0.3,0.5-0.4,1.1-0.4,1.8l-0.3-3.2c0.5-1,1.2-1.7,2-2.3s1.7-0.8,2.7-0.8
				c1.2,0,2.2,0.3,3,0.8c0.8,0.5,1.5,1.3,1.9,2.3c0.4,1,0.7,2.2,0.7,3.7V30c0,1.4-0.2,2.6-0.7,3.6c-0.4,1-1.1,1.8-2,2.3
				s-1.9,0.8-3.1,0.8C24,36.7,23.1,36.5,22.3,36z"/>
			<path class="st2" d="M40.9,36.5h-3.3V16.7l-3.3,2v-3.4l3.3-2.2h3.3V36.5z"/>
			<path class="st2" d="M46.3,19.8h3.3v23.4h-3.3V19.8z M51,36c-0.8-0.5-1.3-1.2-1.7-2.1l0.2-3.5c0,0.7,0.1,1.3,0.4,1.8
				s0.6,0.9,1.1,1.2s1.1,0.4,1.8,0.4c1.1,0,1.9-0.3,2.5-1c0.6-0.7,0.9-1.6,0.9-2.8v-3.6c0-1.2-0.3-2.2-0.9-2.8c-0.6-0.7-1.4-1-2.5-1
				c-0.7,0-1.3,0.1-1.8,0.4s-0.9,0.6-1.1,1.1c-0.3,0.5-0.4,1.1-0.4,1.8l-0.3-3.2c0.5-1,1.2-1.7,2-2.3s1.7-0.8,2.7-0.8
				c1.2,0,2.2,0.3,3,0.8c0.8,0.5,1.5,1.3,1.9,2.3c0.4,1,0.7,2.2,0.7,3.7V30c0,1.4-0.2,2.6-0.7,3.6c-0.4,1-1.1,1.8-2,2.3
				s-1.9,0.8-3.1,0.8C52.7,36.7,51.8,36.5,51,36z"/>
			<path class="st2" d="M63.7,30.1l7.8-16.9h3.4l-7.6,16.7h11.4v3h-15V30.1z M73.7,22.8h3.2v13.7h-3.2V22.8z"/>
		</g>
	</g>
</g>
</svg>
