<?xml version="1.0" encoding="utf-8"?>
<!-- Generator: Adobe Illustrator 24.3.0, SVG Export Plug-In . SVG Version: 6.00 Build 0)  -->
<svg version="1.1" id="图层_1" xmlns="http://www.w3.org/2000/svg" xmlns:xlink="http://www.w3.org/1999/xlink" x="0px" y="0px"
	 viewBox="0 0 200 200" style="enable-background:new 0 0 200 200;" xml:space="preserve">
<style type="text/css">
	.st0{fill:#FFFFFF;}
</style>
<g>
	<g>
		<path class="st0" d="M179.65,0L179.65,0c-4.6,0-8.5,1.7-11.8,4.9c-3.2,3.3-4.8,7.1-4.8,11.7v82.7c-0.1-1.4-0.4-2.8-0.9-4.1
			c-1.3-3.4-3.4-6-6.4-7.7L25.85,12c-3.1-1.8-6.5-2.4-10-1.8c-3.5,0.6-6.3,2.4-8.6,5.1c-2.3,2.6-3.5,5.8-3.5,9.4v150.5
			c0,3.7,1.2,6.9,3.5,9.6c2.3,2.6,5.1,4.3,8.6,4.9c3.5,0.6,6.9,0,10-1.7l129.8-75.1c3.1-1.9,5.2-4.4,6.5-7.8
			c0.5-1.4,0.8-2.7,0.9-4.1v82.4c0,4.6,1.6,8.5,4.8,11.8c3.3,3.2,7.2,4.8,11.8,4.8l0,0c4.6,0,8.5-1.6,11.7-4.8
			c3.3-3.3,4.9-7.2,4.9-11.8V16.6c0-4.6-1.6-8.4-4.9-11.7C188.15,1.7,184.25,0,179.65,0z"/>
	</g>
</g>
</svg>
