<svg xmlns="http://www.w3.org/2000/svg" xmlns:xlink="http://www.w3.org/1999/xlink" fill="none"
    version="1.1" width="16" height="16" viewBox="0 0 16 16">
    <defs>
        <clipPath id="master_svg0_278_04407">
            <rect x="0" y="0" width="16" height="16" rx="0" />
        </clipPath>
    </defs>
    <g clip-path="url(#master_svg0_278_04407)">
        <g>
            <path
                d="M2.347565140625,12L13.652944140625,12Q14.500244140625,12,14.500244140625,12.73L14.500244140625,13.27Q14.500244140625,14,13.652944140625,14L2.347565140625,14Q1.500244140625,14,1.500244140625,13.27L1.500244140625,12.73Q1.500244140625,11.999999331982,2.347565140625,12Z"
                fill="currentColor" />
        </g>
        <g>
            <path
                d="M8.737334140625,9.85308L11.447484140625,6.7363C11.504484140625,6.67156,11.516364140625,6.58155,11.477924140625,6.50564C11.439484140625,6.42973,11.357724140624999,6.38175,11.268404140625,6.38268L10.078214140625,6.38268C10.078214140625,2.743688,6.640854140625001,2.0940154,4.786772140625,2.00766647C4.666180140625,1.9764882,4.541567840625,2.0432227,4.508408190625,2.156741C4.475248640625,2.2702590000000002,4.546092140625,2.387595,4.666661140625,2.4188520000000002C6.044664140625,3.1158099999999997,6.651774140625,4.30003,6.723834140625,6.15653C6.725054140625,6.27655,6.622034140625,6.37446,6.4945341406249995,6.37446L5.542384140625,6.37446C5.449973140625,6.37138,5.364648140625,6.42087,5.325991140625,6.49994C5.287333140625,6.57902,5.302908140625,6.67222,5.365490140625,6.7363L8.075634140625,9.86131C8.252534140625,10.0495,8.565784140625,10.04561,8.737334140625,9.85308Z"
                fill="currentColor" />
        </g>
    </g>
</svg>