<svg xmlns="http://www.w3.org/2000/svg" xmlns:xlink="http://www.w3.org/1999/xlink" fill="none"
    version="1.1" width="16" height="16" viewBox="0 0 16 16">
    <defs>
        <clipPath id="master_svg0_278_04316">
            <rect x="0" y="0" width="16" height="16" rx="0" />
        </clipPath>
    </defs>
    <g clip-path="url(#master_svg0_278_04316)">
        <g>
            <path
                d="M6.300055703125,1.500001640625C5.800055703125,1.300002640625,5.200055703125,1.700001640625,5.100055703124999,2.200001640625L2.5000557031249997,11.900031640625C2.400059703125,12.400031640625,2.700055703125,13.000031640625,3.200055703125,13.100031640625L10.000055703125,14.900031640625C10.500055703125,15.000031640625,11.100055703125,14.700031640625,11.200055703125,14.200031640625L13.800095703125,4.500001640625C13.900095703125,4.000001640624999,13.600095703125,3.400001640625,13.100095703125,3.300001640625L6.300055703125,1.500001640625ZM6.600055703125,0.500002540625L13.400095703125,2.300001640625C14.500095703125,2.600001640625,15.100095703125,3.700001640625,14.800095703125,4.700001640625L12.200095703125,14.400031640625C11.900095703125,15.500031640625,10.800055703125,16.100031640624998,9.800055703125,15.800031640625L2.900055703125,14.000031640625C1.800058703125,13.700031640625,1.200058703125,12.600031640625,1.500058803125,11.600031640625L4.100055703124999,1.900001640625C4.400055703125,0.900002640625,5.500055703125,0.200002640625,6.600055703125,0.500002540625Z"
                fill="currentColor" />
        </g>
        <g>
            <path
                d="M3,2L10,2C11.1,2,12,2.9,12,4L12,14C12,15.1,11.1,16,10,16L3,16C1.9,16,1,15.1,1,14L1,4C1,2.9,1.9,2,3,2ZM7,9L7,6.5C7,6.2,6.8,6,6.5,6C6.2,6,6,6.2,6,6.5L6,9L3.5,9C3.2,9,3,9.2,3,9.5C3,9.8,3.2,10,3.5,10L6,10L6,12.5C6,12.8,6.2,13,6.5,13C6.8,13,7,12.8,7,12.5L7,10L9.5,10C9.8,10,10,9.8,10,9.5C10,9.2,9.8,9,9.5,9L7,9Z"
                fill="currentColor" />
        </g>
    </g>
</svg>