<?xml version="1.0" encoding="utf-8"?>
<!-- Generator: Adobe Illustrator 24.3.0, SVG Export Plug-In . SVG Version: 6.00 Build 0)  -->
<svg version="1.1" id="图层_1" focusable="false" xmlns="http://www.w3.org/2000/svg" xmlns:xlink="http://www.w3.org/1999/xlink"
	 x="0px" y="0px" viewBox="0 0 512 512" style="enable-background:new 0 0 512 512;" xml:space="preserve">
<style type="text/css">
	.st0{fill:#498BA7;}
</style>
<path class="st0" d="M352,248v28c0,6.6-5.4,12-12,12H172c-6.6,0-12-5.4-12-12v-28c0-6.6,5.4-12,12-12h168
	C346.6,236,352,241.4,352,248z M340,320H172c-6.6,0-12,5.4-12,12v28c0,6.6,5.4,12,12,12h168c6.6,0,12-5.4,12-12v-28
	C352,325.4,346.6,320,340,320z M448,131.9V464c0,26.5-21.5,48-48,48H112c-26.5,0-48-21.5-48-48V48c0-26.5,21.5-48,48-48h204.1
	C328.8,0,341,5.1,350,14.1L433.9,98C442.9,106.9,448,119.2,448,131.9z M320,51.9V128h76.1C396.1,128,320,51.9,320,51.9z M400,464
	V176H296c-13.3,0-24-10.7-24-24V48H112v416H400z"/>
</svg>
