<?xml version="1.0" encoding="utf-8"?>
<!-- Generator: Adobe Illustrator 24.3.0, SVG Export Plug-In . SVG Version: 6.00 Build 0)  -->
<svg version="1.1" id="图层_1" xmlns="http://www.w3.org/2000/svg" xmlns:xlink="http://www.w3.org/1999/xlink" x="0px" y="0px"
	 viewBox="0 0 256 256" style="enable-background:new 0 0 256 256;" xml:space="preserve">
<style type="text/css">
	.st0{fill:#3E71B8;}
	.st1{fill:#193D70;}
	.st2{fill:#2C5DA7;}
</style>
<g>
	<g>
		<g>
			<path class="st0" d="M243.6,120.5c0-30.6-10.7-56.6-32.3-78.2c-21.5-21.5-47.7-32.2-78.2-32.2c-14.2,0-27.3,2.3-39.5,7h0.1
				c-14.1,5.2-27,13.6-38.6,25.1v0.1l-4.8,5l36,23L72.6,91.9l-0.3,0.5c-1.1,1.8-2.1,3.6-3,5.5L66,107l-0.8,3.2h9.2l2.1-7.7l0.2-0.7
				l0.1-0.4c2.8-8.4,7.6-16.1,14.5-22.8h-0.1c6.2-6.2,13.1-10.8,20.7-13.7c6.5-2.5,13.6-3.7,21.2-3.7c16.4,0,30.4,5.9,42,17.4
				c11.5,11.6,17.3,25.6,17.3,41.9c0,11.9-3.1,22.7-9.3,32l-26.4-37.8L114.8,144L186,245.9l42-29.3l-14.3-20.5
				C233.6,175,243.6,149.8,243.6,120.5z"/>
			<path class="st1" d="M50.3,47.3l-7.1-4.6L29.4,64.3c-8.8,13.8-14.2,29.4-16.2,46.9c-3.4,30.1,4.2,57.2,23.2,81h0.1
				c18.9,24,43.6,37.7,73.9,41.2c9.5,1.1,18.7,1,27.7-0.1l25.3-3.4l-0.2-1.7l-31.9-45.7c-4.9,0.6-9.9,0.6-15,0
				c-16.3-1.8-29.5-9.2-39.7-22l0,0c-10.2-12.8-14.3-27.3-12.5-43.6v-0.1c0.2-2.2,0.7-4.5,1.1-6.6H21.3l5.8-21.1l0.7-2.4v-0.3
				C32.3,72.1,39.8,59.1,50.3,47.3z"/>
			<path class="st2" d="M27.1,89.1l-5.8,21.1h43.9L66,107l3.3-9.1c0.9-1.9,1.9-3.7,3-5.5l0.3-0.5l13.7-21.6l-36-23
				c-10.5,11.8-18,24.8-22.5,39.1v0.3L27.1,89.1z"/>
		</g>
	</g>
</g>
</svg>
