<?xml version="1.0" encoding="utf-8"?>
<!-- Generator: Adobe Illustrator 24.3.0, SVG Export Plug-In . SVG Version: 6.00 Build 0)  -->
<svg version="1.1" id="图层_1" xmlns="http://www.w3.org/2000/svg" xmlns:xlink="http://www.w3.org/1999/xlink" x="0px" y="0px"
	 viewBox="0 0 200 200" style="enable-background:new 0 0 200 200;" xml:space="preserve">
<style type="text/css">
	.st0{fill:#FFFFFF;}
</style>
<g>
	<g>
		<path class="st0" d="M196.25,24.7c0-3.5-1.2-6.8-3.6-9.5c-2.3-2.6-5.1-4.3-8.6-5c-3.5-0.5-6.9,0-9.9,1.8L44.35,87.1
			c-3.2,1.8-5.4,4.4-6.5,7.8c-0.6,1.3-0.9,2.7-1,4.1V16.6c0-4.6-1.6-8.5-4.9-11.8c-3.2-3.2-7.1-4.8-11.6-4.8h-0.1
			c-4.5,0-8.4,1.6-11.7,4.8c-3.3,3.3-4.8,7.2-4.8,11.8v166.8c0,4.6,1.5,8.4,4.8,11.7c3.3,3.3,7.2,4.9,11.7,4.9h0.1
			c4.5,0,8.4-1.6,11.6-4.9c3.3-3.3,4.9-7.1,4.9-11.7v-82.7c0.1,1.3,0.4,2.8,1,4.1c1.1,3.4,3.2,5.9,6.3,7.7l129.9,75.5
			c3.1,1.8,6.5,2.4,10,1.8c3.5-0.7,6.3-2.4,8.6-5.1c2.4-2.6,3.6-5.8,3.6-9.4V24.7z"/>
	</g>
</g>
</svg>
