<?xml version="1.0" encoding="utf-8"?>
<!-- Generator: Adobe Illustrator 24.3.0, SVG Export Plug-In . SVG Version: 6.00 Build 0)  -->
<svg version="1.1" id="图层_1" xmlns="http://www.w3.org/2000/svg" xmlns:xlink="http://www.w3.org/1999/xlink" x="0px" y="0px"
	 viewBox="0 0 200 200" style="enable-background:new 0 0 200 200;" xml:space="preserve">
<style type="text/css">
	.st0{fill:#D14F5B;}
</style>
<g>
	<g>
		<path class="st0" d="M67.1,0.2V0H26.5C15.5,0,10,5.5,10,16.4v167.2c0,10.9,5.5,16.4,16.5,16.4h40.6v-0.2
			c8.6-1.2,12.9-6.6,12.9-16.2V16.4C80,6.7,75.7,1.3,67.1,0.2z"/>
		<path class="st0" d="M177.1,0.2V0h-40.6c-11,0-16.5,5.5-16.5,16.4v167.2c0,10.9,5.5,16.4,16.5,16.4h40.6v-0.2
			c8.6-1.2,12.9-6.6,12.9-16.2V16.4C190,6.7,185.7,1.3,177.1,0.2z"/>
	</g>
</g>
</svg>
