<?xml version="1.0" encoding="utf-8"?>
<!-- Generator: Adobe Illustrator 24.3.0, SVG Export Plug-In . SVG Version: 6.00 Build 0)  -->
<svg version="1.1" id="图层_1" focusable="false" xmlns="http://www.w3.org/2000/svg" xmlns:xlink="http://www.w3.org/1999/xlink"
	 x="0px" y="0px" viewBox="0 0 512 512" style="enable-background:new 0 0 512 512;" xml:space="preserve">
<style type="text/css">
	.st0{fill:#498BA7;}
</style>
<path class="st0" d="M288,136V0H88C74.7,0,64,10.7,64,24v464c0,13.3,10.7,24,24,24h336c13.3,0,24-10.7,24-24V160H312
	C298.8,160,288,149.2,288,136z M352,372c0,6.6-5.4,12-12,12H172c-6.6,0-12-5.4-12-12v-8c0-6.6,5.4-12,12-12h168c6.6,0,12,5.4,12,12
	V372z M352,308c0,6.6-5.4,12-12,12H172c-6.6,0-12-5.4-12-12v-8c0-6.6,5.4-12,12-12h168c6.6,0,12,5.4,12,12V308z M352,236v8
	c0,6.6-5.4,12-12,12H172c-6.6,0-12-5.4-12-12v-8c0-6.6,5.4-12,12-12h168C346.6,224,352,229.4,352,236z M448,121.9v6.1H320V0h6.1
	c6.4,0,12.5,2.5,17,7l97.9,98C445.5,109.5,448,115.6,448,121.9z"/>
</svg>
