<?xml version="1.0" encoding="utf-8"?>
<!-- Generator: Adobe Illustrator 24.3.0, SVG Export Plug-In . SVG Version: 6.00 Build 0)  -->
<svg version="1.1" id="图层_1" focusable="false" xmlns="http://www.w3.org/2000/svg" xmlns:xlink="http://www.w3.org/1999/xlink"
	 x="0px" y="0px" viewBox="0 0 576 576" style="enable-background:new 0 0 576 576;" xml:space="preserve">
<style type="text/css">
	.st0{fill:#007BB7;}
</style>
<path class="st0" d="M280.4,122.9L96,318.2v210.7c0,11.4,7.2,20.6,16,20.6l112.1-0.4c8.8-0.1,15.9-9.3,15.9-20.6V405.5
	c0-11.4,7.2-20.6,16-20.6h64c8.8,0,16,9.2,16,20.6v123c0,11.4,7.1,20.6,15.9,20.6c0,0,0,0,0.1,0l112,0.4c8.8,0,16-9.2,16-20.6V318
	L295.7,122.9C291.2,118.3,284.8,118.3,280.4,122.9L280.4,122.9z M571.6,308.6L488,220V41.9c0-8.5-5.4-15.4-12-15.4h-56
	c-6.6,0-12,6.9-12,15.4v93.4l-89.5-94.7c-17.7-18.7-43.3-18.7-61,0L4.4,308.6c-5.1,5.4-5.8,15.2-1.6,21.7c0,0,0,0,0,0l25.5,39.9
	c4.2,6.6,11.8,7.5,16.9,2.1c0,0,0,0,0,0l235.2-249.1c4.5-4.6,10.8-4.6,15.3,0l235.2,249.1c5.1,5.4,12.7,4.5,16.9-2.1c0,0,0,0,0,0
	l25.5-39.9C577.5,323.8,576.7,314.1,571.6,308.6C571.6,308.7,571.6,308.7,571.6,308.6L571.6,308.6z"/>
</svg>
