<?xml version="1.0" encoding="utf-8"?>
<!-- Generator: Adobe Illustrator 24.3.0, SVG Export Plug-In . SVG Version: 6.00 Build 0)  -->
<svg version="1.1" id="图层_1" xmlns="http://www.w3.org/2000/svg" xmlns:xlink="http://www.w3.org/1999/xlink" x="0px" y="0px"
	 viewBox="0 0 256 256" style="enable-background:new 0 0 256 256;" xml:space="preserve">
<style type="text/css">
	.st0{fill:#0089CA;}
	.st1{fill:#007BB7;}
	.st2{fill:#287BAD;}
</style>
<g>
	<path class="st0" d="M253.5,119.9c0-33.2-11.6-61.4-35.1-84.9c-23.3-23.3-51.8-35-84.9-35c-15.4,0-29.6,2.5-42.9,7.6h0.1
		c-15.3,5.6-29.3,14.8-41.9,27.3V35l-5.2,5.4l39.1,25L67.8,88.8l-0.3,0.5c-1.2,2-2.3,3.9-3.3,6l-3.6,9.9l-0.9,3.5h10l2.5-9.1
		l0.1-0.4c3-9.1,8.3-17.5,15.7-24.8H88c6.7-6.7,14.2-11.7,22.5-14.9c7.1-2.7,14.8-4,23-4c17.8,0,33,6.4,45.6,18.9
		c12.5,12.6,18.8,27.8,18.8,45.5c0,12.9-3.4,24.6-10.1,34.7l-28.7-41l-45.5,31.8L191,256l45.6-31.8L221,201.9
		C242.6,179,253.5,151.7,253.5,119.9z"/>
	<path class="st1" d="M35.9,35.4l-15,23.5c-9.6,15-15.4,31.9-17.6,50.9c-3.7,32.7,4.6,62.1,25.2,87.9h0.1
		c20.5,26.1,47.3,40.9,80.2,44.7c10.3,1.2,20.3,1.1,30.1-0.1l27.5-3.7l-0.2-1.8l-34.6-49.6c-5.3,0.7-10.7,0.7-16.3,0
		c-17.7-2-32-10-43.1-23.9l0,0c-11.1-13.9-15.5-29.6-13.6-47.3v-0.1c0.2-2.4,0.8-4.9,1.2-7.2H12.2l7.1-25.8
		c4.9-15.5,13-29.6,24.4-42.4L35.9,35.4z"/>
	<path class="st2" d="M19.2,82.8l-7.1,25.8h47.7l0.9-3.5l3.6-9.9c1-2.1,2.1-4,3.3-6l0.3-0.5l14.9-23.5l-39.1-25
		C32.2,53.2,24.1,67.3,19.2,82.8z"/>
</g>
</svg>
