<svg xmlns="http://www.w3.org/2000/svg" xmlns:xlink="http://www.w3.org/1999/xlink" viewBox="0 0 550 320"><defs><linearGradient id="a" x1="275" y1="228.89" x2="275" y2="174.91" gradientUnits="userSpaceOnUse"><stop offset="0" stop-color="#fff" stop-opacity="0"/><stop offset="1" stop-color="#fff" stop-opacity="0.15"/></linearGradient></defs><rect width="550" height="320" style="fill:#2f2f2f"/><path d="M20.37,30.61c0-3.6,2.19-5.76,5-5.76a4.22,4.22,0,0,1,3.13,1.4l-.94,1.11a2.92,2.92,0,0,0-2.16-1c-1.91,0-3.23,1.59-3.23,4.18s1.23,4.23,3.18,4.23a3.22,3.22,0,0,0,2.45-1.17l.93,1.1a4.36,4.36,0,0,1-3.44,1.58C22.5,36.29,20.37,34.23,20.37,30.61Zm10.29-5.55H32.4v4.5h4.72v-4.5h1.74v11H37.12v-5H32.4v5H30.66Zm10.5,5.48c0-3.56,2-5.69,4.8-5.69s4.81,2.13,4.81,5.69-2,5.75-4.81,5.75S41.16,34.09,41.16,30.54Zm7.82,0c0-2.6-1.2-4.17-3-4.17s-3,1.57-3,4.17,1.19,4.24,3,4.24S49,33.13,49,30.54ZM59.09,36.1l-2.5-4.45H54.81V36.1H53.07v-11h3.61c2.28,0,4,.81,4,3.2a3.06,3.06,0,0,1-2.31,3.16l2.7,4.68Zm-4.28-5.85h1.66c1.61,0,2.48-.66,2.48-2s-.87-1.8-2.48-1.8H54.81Zm8,1.11v-6.3h1.74v6.42c0,2.49,1,3.3,2.37,3.3s2.41-.81,2.41-3.3V25.06H71v6.3c0,3.6-1.64,4.93-4.09,4.93S62.83,35,62.83,31.36Zm10.11,3.32,1-1.2a4.3,4.3,0,0,0,2.94,1.3c1.33,0,2.08-.63,2.08-1.56s-.75-1.32-1.77-1.77l-1.52-.66a3.17,3.17,0,0,1-2.25-2.89c0-1.74,1.53-3,3.62-3a4.72,4.72,0,0,1,3.35,1.4l-.92,1.11a3.49,3.49,0,0,0-2.43-1c-1.12,0-1.85.54-1.85,1.42s.88,1.31,1.78,1.67l1.51.64a3.09,3.09,0,0,1,2.25,3c0,1.76-1.47,3.2-3.88,3.2A5.5,5.5,0,0,1,72.94,34.68Zm13.28-9.62H88v5.22h0l4.2-5.22h1.93l-3.42,4.26,4,6.78H92.77l-3.12-5.4L88,32.77V36.1H86.22Zm9.94,0H97.9v11H96.16ZM103,26.52H99.8V25.06H108v1.46h-3.26V36.1H103ZM326.85,292.39c0-2.87,1.75-4.6,4-4.6a3.42,3.42,0,0,1,2.51,1.11l-.75.89a2.35,2.35,0,0,0-1.73-.79c-1.52,0-2.58,1.27-2.58,3.35s1,3.38,2.54,3.38a2.57,2.57,0,0,0,2-.94l.74.88a3.51,3.51,0,0,1-2.75,1.27C328.56,296.94,326.85,295.28,326.85,292.39Zm7.65,1.11a3.12,3.12,0,1,1,3.1,3.44A3.18,3.18,0,0,1,334.5,293.5Zm4.79,0c0-1.41-.64-2.34-1.69-2.34s-1.68.93-1.68,2.34.65,2.31,1.68,2.31S339.29,294.89,339.29,293.5Zm3-3.31h1.13l.11.72h0a3.37,3.37,0,0,1,2-.89c1.68,0,2.62,1.33,2.62,3.36,0,2.26-1.36,3.56-2.85,3.56a2.75,2.75,0,0,1-1.74-.74l0,1.12v2.14h-1.37Zm4.49,3.21c0-1.38-.45-2.23-1.55-2.23a2.31,2.31,0,0,0-1.57.8v3.23a2.26,2.26,0,0,0,1.44.6C346.1,295.8,346.82,295,346.82,293.4Zm5.9,3.78c-.51,1.41-1.21,2.36-2.6,2.36a2.45,2.45,0,0,1-.83-.13l.27-1.08a1.63,1.63,0,0,0,.48.1c.72,0,1.14-.53,1.38-1.24l.13-.45-2.62-6.55h1.42l1.22,3.39.6,1.86h.06l.52-1.86,1.05-3.39h1.35Zm3.63-7h1.13l.1,1.18h0a2.27,2.27,0,0,1,1.87-1.35,1.71,1.71,0,0,1,.74.14l-.25,1.2a2,2,0,0,0-.66-.11c-.54,0-1.18.38-1.6,1.42v4.11h-1.37Zm4.71-2.05a.81.81,0,0,1,.88-.82.82.82,0,1,1-.88.82Zm.2,2.05h1.36v6.59h-1.36Zm3,7.82a1.74,1.74,0,0,1,1-1.44v-.06a1.21,1.21,0,0,1-.6-1.09,1.64,1.64,0,0,1,.73-1.23v-.05a2.25,2.25,0,0,1-.86-1.75A2.37,2.37,0,0,1,367,290a2.66,2.66,0,0,1,1,.17h2.34v1H369a1.79,1.79,0,0,1,.43,1.21A2.25,2.25,0,0,1,367,294.7a2.33,2.33,0,0,1-.92-.21.87.87,0,0,0-.36.7c0,.39.26.65,1.1.65H368c1.56,0,2.38.48,2.38,1.6s-1.34,2.31-3.45,2.31C365.37,299.75,364.22,299.16,364.22,298Zm4.86-.35c0-.55-.43-.72-1.24-.72h-1a4.26,4.26,0,0,1-.89-.1,1.18,1.18,0,0,0-.56,1c0,.65.67,1,1.76,1S369.08,298.27,369.08,297.66Zm-.83-5.27a1.25,1.25,0,1,0-2.49,0,1.26,1.26,0,1,0,2.49,0Zm3.39-5.17H373v2.53l0,1.31a3,3,0,0,1,2.13-1c1.4,0,2,.93,2,2.61v4.15h-1.38v-4c0-1.14-.34-1.59-1.12-1.59a2.25,2.25,0,0,0-1.62.9v4.67h-1.36Zm7.66,7.4v-3.33h-1v-1l1-.07.16-1.83h1.16v1.83h1.72v1.1h-1.72v3.35c0,.79.28,1.2,1,1.2a2,2,0,0,0,.71-.16l.25,1a4.17,4.17,0,0,1-1.29.24C379.82,296.94,379.3,296,379.3,294.62ZM386,296c2.61-2.3,4-4,4-5.47a1.44,1.44,0,0,0-1.5-1.62,2.42,2.42,0,0,0-1.74,1l-.78-.77a3.47,3.47,0,0,1,2.69-1.32,2.49,2.49,0,0,1,2.66,2.65c0,1.7-1.35,3.46-3.22,5.25a14,14,0,0,1,1.43-.08h2.21v1.17H386Zm6.88-3.65c0-3.05,1.12-4.54,2.85-4.54s2.86,1.5,2.86,4.54-1.13,4.61-2.86,4.61S392.9,295.4,392.9,292.33Zm4.39,0c0-2.53-.64-3.45-1.54-3.45s-1.53.92-1.53,3.45.63,3.52,1.53,3.52S397.29,294.89,397.29,292.33Zm2.92,3.31h1.93V289.5h-1.58v-.87a5.52,5.52,0,0,0,1.91-.67h1v7.68h1.73v1.14h-5Zm7.21-.49a2,2,0,0,0,1.45.66c1.07,0,2-.86,2.08-3.38a2.66,2.66,0,0,1-1.95,1c-1.47,0-2.47-.92-2.47-2.77a2.7,2.7,0,0,1,2.63-2.9c1.69,0,3.06,1.37,3.06,4.28,0,3.48-1.59,4.87-3.29,4.87a3,3,0,0,1-2.25-.94Zm3.5-3.76c-.13-1.74-.79-2.53-1.75-2.53-.76,0-1.36.68-1.36,1.83s.51,1.78,1.43,1.78A2.14,2.14,0,0,0,410.92,291.39Zm2.5,1.5h3.17v1h-3.17Zm4.25,3.09c2.6-2.3,3.94-4,3.94-5.47a1.44,1.44,0,0,0-1.5-1.62,2.38,2.38,0,0,0-1.73,1l-.78-.77a3.43,3.43,0,0,1,2.68-1.32,2.49,2.49,0,0,1,2.66,2.65c0,1.7-1.35,3.46-3.22,5.25a14.21,14.21,0,0,1,1.44-.08h2.2v1.17h-5.69Zm6.87-3.65c0-3.05,1.12-4.54,2.86-4.54s2.85,1.5,2.85,4.54-1.13,4.61-2.85,4.61S424.54,295.4,424.54,292.33Zm4.39,0c0-2.53-.63-3.45-1.53-3.45s-1.54.92-1.54,3.45.64,3.52,1.54,3.52S428.93,294.89,428.93,292.33Zm2.42,3.65c2.6-2.3,3.94-4,3.94-5.47a1.44,1.44,0,0,0-1.5-1.62,2.38,2.38,0,0,0-1.73,1l-.78-.77a3.43,3.43,0,0,1,2.68-1.32,2.49,2.49,0,0,1,2.66,2.65c0,1.7-1.35,3.46-3.22,5.25a14.21,14.21,0,0,1,1.44-.08H437v1.17h-5.69Zm6.65-.25.67-.89a2.82,2.82,0,0,0,2.08,1,1.48,1.48,0,0,0,1.68-1.46c0-1-.62-1.62-2.61-1.62v-1c1.74,0,2.31-.66,2.31-1.55a1.23,1.23,0,0,0-1.35-1.28,2.56,2.56,0,0,0-1.76.84l-.72-.86a3.68,3.68,0,0,1,2.53-1.07c1.58,0,2.69.81,2.69,2.28a2.12,2.12,0,0,1-1.52,2.07v.06a2.23,2.23,0,0,1,1.82,2.21c0,1.59-1.33,2.53-2.95,2.53A3.63,3.63,0,0,1,438,295.73Zm9.88-3.4c0-2.84,1.57-4.54,3.84-4.54s3.85,1.7,3.85,4.54-1.58,4.61-3.85,4.61S447.88,295.18,447.88,292.33Zm6.26,0c0-2.07-1-3.33-2.42-3.33s-2.41,1.26-2.41,3.33.95,3.4,2.41,3.4S454.14,294.41,454.14,292.33Zm3.15-2.14h1.13l.11.72h0a3.37,3.37,0,0,1,2-.89c1.68,0,2.61,1.33,2.61,3.36,0,2.26-1.35,3.56-2.84,3.56a2.72,2.72,0,0,1-1.74-.74l0,1.12v2.14h-1.37Zm4.49,3.21c0-1.38-.45-2.23-1.55-2.23a2.29,2.29,0,0,0-1.57.8v3.23a2.24,2.24,0,0,0,1.44.6C461.06,295.8,461.78,295,461.78,293.4Zm2.6.1a3.21,3.21,0,0,1,3-3.48c1.75,0,2.69,1.26,2.69,3.13a3.2,3.2,0,0,1-.06.69h-4.28a2,2,0,0,0,2,2,2.8,2.8,0,0,0,1.57-.49l.48.87a4,4,0,0,1-2.23.7A3.17,3.17,0,0,1,464.38,293.5Zm4.51-.6c0-1.14-.51-1.8-1.47-1.8a1.78,1.78,0,0,0-1.69,1.8Zm2.74-2.71h1.13l.11.91h0a3.14,3.14,0,0,1,2.18-1.08c1.41,0,2,.93,2,2.61v4.15h-1.38v-4c0-1.14-.33-1.59-1.11-1.59a2.25,2.25,0,0,0-1.62.9v4.67h-1.37Zm6.29-2.23h1.47l1.31,4.57c.3,1,.49,1.87.81,2.89h.06c.3-1,.51-1.89.8-2.89l1.31-4.57h1.41l-2.76,8.82h-1.64Zm8.31,0h2.68c2,0,3.37.67,3.37,2.66s-1.4,2.82-3.32,2.82h-1.33v3.34h-1.4Zm2.6,4.36c1.41,0,2.08-.54,2.08-1.7s-.73-1.55-2.13-1.55h-1.15v3.25ZM494,288h1.39v8.82H494Zm8.21,1.16h-2.6V288h6.59v1.16h-2.6v7.66h-1.39Zm4,4.38a3.21,3.21,0,0,1,3-3.48c1.75,0,2.69,1.26,2.69,3.13a3.2,3.2,0,0,1-.06.69h-4.28a2,2,0,0,0,2,2,2.83,2.83,0,0,0,1.57-.49l.48.87a4,4,0,0,1-2.23.7A3.17,3.17,0,0,1,506.2,293.5Zm4.51-.6c0-1.14-.51-1.8-1.47-1.8a1.78,1.78,0,0,0-1.69,1.8Zm2.18,2.13c0-1.41,1.2-2.14,3.94-2.44,0-.77-.29-1.44-1.26-1.44a3.61,3.61,0,0,0-1.9.67l-.52-.94a5.06,5.06,0,0,1,2.66-.86c1.65,0,2.4,1,2.4,2.79v4h-1.13L517,296h0a3.31,3.31,0,0,1-2.1.91A1.82,1.82,0,0,1,512.89,295Zm3.94.05v-1.62c-2,.24-2.61.73-2.61,1.48s.44.91,1,.91A2.34,2.34,0,0,0,516.83,295.08Zm3.34-4.89h1.13l.11.92h0a2.86,2.86,0,0,1,2-1.09,1.75,1.75,0,0,1,1.82,1.21,3,3,0,0,1,2.15-1.21c1.38,0,2,.93,2,2.61v4.15H528.1v-4c0-1.14-.36-1.59-1.11-1.59a2.2,2.2,0,0,0-1.48.9v4.67h-1.38v-4c0-1.14-.35-1.59-1.11-1.59a2.22,2.22,0,0,0-1.48.9v4.67h-1.37ZM407.9,108.81c0-2.49,1.37-4,3.36-4s3.37,1.49,3.37,4-1.39,4-3.37,4S407.9,111.29,407.9,108.81Zm5.48,0c0-1.82-.84-2.92-2.12-2.92s-2.11,1.1-2.11,2.92.83,3,2.11,3S413.38,110.62,413.38,108.81ZM417,105h2.34c1.72,0,2.95.59,2.95,2.33s-1.23,2.47-2.91,2.47h-1.16v2.93H417Zm2.27,3.82c1.24,0,1.82-.47,1.82-1.49s-.64-1.35-1.86-1.35h-1v2.84ZM424.5,105h4.56v1h-3.34v2.15h2.83v1h-2.83v2.5h3.46v1H424.5Zm7,0h1.25l2.56,4.54.81,1.64h.06c-.07-.8-.16-1.74-.16-2.58V105h1.15v7.73H436l-2.56-4.56-.81-1.61h-.05c.06.8.16,1.69.16,2.53v3.64h-1.16Zm7.41,0h1.29l1.14,4c.26.89.43,1.64.7,2.53h.06c.26-.89.45-1.64.7-2.53l1.15-4h1.23l-2.41,7.73h-1.44Zm8,0h2.34c1.72,0,2.95.59,2.95,2.33s-1.23,2.47-2.91,2.47h-1.17v2.93H447Zm2.26,3.82c1.24,0,1.83-.47,1.83-1.49s-.64-1.35-1.87-1.35h-1v2.84Zm5.27-3.82h1.21v7.73h-1.21Zm-106.71,56.9A18,18,0,0,1,331,146.51a19.74,19.74,0,0,1,0-5.17,18,18,0,0,1,12.24-14.51,18.55,18.55,0,0,1,4.13-.82,22.31,22.31,0,0,1,2.32,0,18.08,18.08,0,0,1,11.05,4.53c.35.31,1.16,1.13,1.46,1.46a18.13,18.13,0,0,1,4.51,10.54,27.09,27.09,0,0,1,0,2.85,18.27,18.27,0,0,1-.86,4.22,17.93,17.93,0,0,1-6.34,8.77c-.4.3-1.07.75-1.51,1a18,18,0,0,1-8.3,2.52c-.44,0-1.45,0-1.89,0Zm1.68-4.37a13.66,13.66,0,0,0,4-.83,14.48,14.48,0,0,0,2.88-1.48,13.61,13.61,0,0,0,5.93-10.12,17.5,17.5,0,0,0,0-2.29,13.62,13.62,0,0,0-16.86-12.05,13.46,13.46,0,0,0-4.83,2.3,12.18,12.18,0,0,0-1.48,1.29,12.7,12.7,0,0,0-1.71,2.07,13.56,13.56,0,0,0-2.06,9.92,13.58,13.58,0,0,0,12.85,11.2c.43,0,.62,0,1.24,0Zm21.68-16.88s0-.14,0-.27a24.52,24.52,0,0,0-.68-2.95,22.62,22.62,0,0,0-21-16.09l-.59,0V117h2.11v1.13a5.3,5.3,0,0,0,0,1.17,1,1,0,0,0,.36.08,24.79,24.79,0,0,1,13.76,6c.56.49,1.52,1.44,2,2a24.8,24.8,0,0,1,6.07,12.81l0,.16-1,.14-1,.16a.08.08,0,0,1-.07,0Zm-18.82,27.76s-.06-.47-.14-1-.15-1-.14-1l.33-.06a22.62,22.62,0,0,0,18.7-18.6,24,24,0,0,0,.31-3.18l0-.47h4.34v2.08H374.6a5.29,5.29,0,0,0-1.18,0,2.77,2.77,0,0,0-.1.56,24.71,24.71,0,0,1-20.41,21.61c-.49.09-.6.1-.6.08Zm-5.75,1.41c0-1,0-1.14-.06-1.19s-.13-.06-.41-.09c-.56,0-1.51-.2-2.16-.33a24.8,24.8,0,0,1-16.06-11,24.94,24.94,0,0,1-3.49-9c-.05-.29-.09-.55-.09-.58s0-.06,1-.06h1.06s0,.23.09.48a22.6,22.6,0,0,0,15.91,17.65,22.24,22.24,0,0,0,5.57.89l.7,0v4.37h-2.11Zm-24.8-27v-1.06h1.13a4.41,4.41,0,0,0,1.18,0,1.89,1.89,0,0,0,.1-.54,24.73,24.73,0,0,1,19.9-21.52c.44-.09,1.09-.19,1.1-.18s.3,2.05.29,2.06l-.51.1a22.62,22.62,0,0,0-18.27,17.27,23.86,23.86,0,0,0-.56,4.54l0,.43h-4.34Zm-19.48,25.83a24.74,24.74,0,0,1-1.51-49.27,25.65,25.65,0,0,1,5.33,0,24.86,24.86,0,0,1,13.59,5.8c.39.33,1.19,1.07,1.19,1.09s-.68.72-1.52,1.57l-1.51,1.55-.37-.35a20.5,20.5,0,0,0-8.85-4.8,21.73,21.73,0,0,0-3.4-.56,29.06,29.06,0,0,0-3.36,0,20.4,20.4,0,0,0-18.48,18,21.58,21.58,0,0,0,.05,4.89,20.4,20.4,0,0,0,4.43,10.27,21.2,21.2,0,0,0,3,3,20.38,20.38,0,0,0,26.64-1l.33-.28s3,3.06,3,3.09a14.68,14.68,0,0,1-1.36,1.26,24.78,24.78,0,0,1-12.9,5.58,20.27,20.27,0,0,1-2.73.16C303.23,168.65,302.52,168.64,302.28,168.63Zm-49,.67-.56,0a27,27,0,0,1-7.44-1.45c-4.67-1.67-8-4.51-9.41-8.12a2.16,2.16,0,0,1-.22-.68l4.12-1.32s0,0,0,.06l.1.28a8.74,8.74,0,0,0,3.46,4,18.68,18.68,0,0,0,7.71,2.68,22.72,22.72,0,0,0,9.78-.77,12.85,12.85,0,0,0,3.57-1.81,7.9,7.9,0,0,0,2.52-3.3,7.5,7.5,0,0,0,.41-4.26,5.9,5.9,0,0,0-.48-1.35c-1.28-2.63-4.71-4.8-10-6.32-1.08-.31-2.06-.54-3.57-.87a42.83,42.83,0,0,1-7.47-2.17c-5.27-2.14-8.53-5.15-9.67-8.95a11.64,11.64,0,0,1,.83-8.45,12,12,0,0,1,3.18-4c3.09-2.53,7.84-4,13.13-4,5.72,0,11.09,1.68,14.62,4.56a12.57,12.57,0,0,1,3.94,5.42,2.94,2.94,0,0,1,.09.29l-2.08.69-2.06.66-.07-.17a7.43,7.43,0,0,0-1.82-2.8,11.09,11.09,0,0,0-1.07-1c-3.57-2.72-9.72-3.95-15.27-3a15.17,15.17,0,0,0-6.08,2.26,7.49,7.49,0,0,0-2.08,2.08,7.84,7.84,0,0,0-1.29,3.44,11.24,11.24,0,0,0,0,1.64,6.51,6.51,0,0,0,1.94,3.85c1.9,2,5.12,3.54,9.56,4.71.84.22,1.41.35,2.65.62a44.92,44.92,0,0,1,4.38,1.1,27.54,27.54,0,0,1,7.69,3.5,12,12,0,0,1,5.3,7.46,9.66,9.66,0,0,1,.2,2.17,10.32,10.32,0,0,1-.13,1.75,12.13,12.13,0,0,1-4.21,7.48,16.73,16.73,0,0,1-5.73,3,25.53,25.53,0,0,1-5.9,1c-.32,0-2.33,0-2.62,0Zm-57.8-25.52V120.22h33.61v4.23H199.81v18.33h22.56V147H199.81v20.33h-4.35Zm-40.55,0V120.22h33.61v4.23l-14.66,0-14.66,0v18.21l11.26,0,11.25,0V147l-11.25,0-11.26,0,0,10.13,0,10.14h-4.23Zm227.75,1.11V122.45H393.1c6.45,0,10.8,0,11.4.12a14.56,14.56,0,0,1,5.92,2.25,14.85,14.85,0,0,1,4.62,5.44,13.39,13.39,0,0,1-1.12,13.17,13.6,13.6,0,0,1-7.81,5.47c-.9.26-1.16.27-6.55.31l-5.61,0V145l5.31,0,5.32,0,1.11-.39a8.59,8.59,0,0,0,3-1.63,9.27,9.27,0,0,0,3.25-8.15,9.21,9.21,0,0,0-6.79-7.75c-.85-.22-1.35-.23-9.52-.23H387v40.54h-4.35Zm42.9,0V122.45h31.38v4.35H429.79l0,8,0,8,9,0,9,0V147l-9,0-9,0v16l13.54,0,13.55,0v4.23H425.56Zm-285.8-1.11V120.22H144v47.12h-4.23ZM93.24,120.22v47.14l4.25,0V143.66l0-19.15,4.53,0c4.84,0,6.87.07,8.68.46a19.42,19.42,0,0,1,14.9,15.44,24.52,24.52,0,0,1-.06,7.11A19.3,19.3,0,0,1,120,157.71a19,19,0,0,1-12,5.28c-1,.08-3.16.12-5.22.12v4.19c7.11,0,7.35-.09,10-.79A23.58,23.58,0,0,0,130,147.1a28.11,28.11,0,0,0,0-6.61,23.79,23.79,0,0,0-16-19.09c-3.32-1.09-4.4-1.18-13.38-1.18Z" style="fill:#fff"/><path d="M347.68,184c.44,0,1.45,0,1.89,0a17.89,17.89,0,0,1,8.3,2.52c.45.27,1.12.71,1.51,1a18,18,0,0,1,6.34,8.78,18.19,18.19,0,0,1,.86,4.21,27.09,27.09,0,0,1,0,2.85,17.9,17.9,0,0,1-1.24,5.26,18.14,18.14,0,0,1-3.27,5.28c-.29.34-1.11,1.15-1.46,1.46a17.94,17.94,0,0,1-11.05,4.53c-.56,0-1.78,0-2.31,0a18.44,18.44,0,0,1-4.13-.83,18,18,0,0,1-9.61-7.43,18.15,18.15,0,0,1-2.63-7.08,18.65,18.65,0,0,1,0-5.17A18,18,0,0,1,347.68,184Zm1.68,4.37c-.62,0-.81,0-1.23,0a13.59,13.59,0,0,0-10.79,21.12,12.27,12.27,0,0,0,1.71,2.08,12.79,12.79,0,0,0,1.47,1.28,13.62,13.62,0,0,0,21.7-9.75,17.35,17.35,0,0,0,0-2.28,13.67,13.67,0,0,0-5.94-10.13,14.39,14.39,0,0,0-2.87-1.48,13.79,13.79,0,0,0-4.05-.83Zm21.69,16.88a0,0,0,0,1,.06,0l1,.15,1,.14,0,.16A24.72,24.72,0,0,1,367,218.45c-.52.58-1.47,1.52-2,2a24.89,24.89,0,0,1-13.76,6,1.23,1.23,0,0,0-.36.07,5.3,5.3,0,0,0,0,1.17v1.14h-2.12v-4.34l.6,0a23,23,0,0,0,7.61-1.56,22.64,22.64,0,0,0,13.39-14.54,21.91,21.91,0,0,0,.67-3c0-.12,0-.25.05-.27Zm-18.82-27.76s.1,0,.59.08a24.74,24.74,0,0,1,20.42,21.61,2,2,0,0,0,.1.56,5.05,5.05,0,0,0,1.17,0h1.13v2.09H371.3l0-.48a22.78,22.78,0,0,0-6.62-15.45,22.74,22.74,0,0,0-12.39-6.33l-.33-.06s.06-.46.14-1,.15-1,.15-1Zm-5.76-2.54h2.12v4.37l-.7,0a22.62,22.62,0,0,0-21.49,18.54c0,.26-.08.47-.08.48h-1.06c-1,0-1.06,0-1.06-.06s0-.29.09-.58a24.75,24.75,0,0,1,19.56-20c.65-.13,1.6-.27,2.15-.33.28,0,.38,0,.42-.09s.05-.14.05-1.18ZM321.67,202H326v.44a24.64,24.64,0,0,0,.57,4.53,22.62,22.62,0,0,0,18.27,17.27l.5.1s-.27,2.05-.29,2.07-.65-.1-1.09-.19a24.75,24.75,0,0,1-19.91-21.52,1.56,1.56,0,0,0-.1-.54,4.89,4.89,0,0,0-1.17,0h-1.14V202Zm-17.89-24.78a22.24,22.24,0,0,1,2.74.16,24.8,24.8,0,0,1,12.89,5.59,14.34,14.34,0,0,1,1.37,1.25s-3,3.09-3,3.09a3.37,3.37,0,0,1-.32-.28,20.38,20.38,0,0,0-26.64-1,22.38,22.38,0,0,0-3,3,20.49,20.49,0,0,0-4.43,10.27,21.59,21.59,0,0,0,0,4.89,20.38,20.38,0,0,0,18.47,18.05,31.61,31.61,0,0,0,3.37,0,21.6,21.6,0,0,0,3.39-.56,20.34,20.34,0,0,0,8.85-4.8l.37-.34,1.52,1.54c.83.85,1.51,1.56,1.51,1.57s-.8.76-1.19,1.09a24.8,24.8,0,0,1-13.58,5.8,25.08,25.08,0,0,1-5.34-.05,24.73,24.73,0,0,1-20.86-31.53,25,25,0,0,1,4.65-8.76,25.77,25.77,0,0,1,4.17-4,24.76,24.76,0,0,1,13.56-5C302.43,177.19,303.14,177.19,303.78,177.19Zm-50.6-.66c.28,0,2.29,0,2.62,0a25.44,25.44,0,0,1,5.89,1,16.73,16.73,0,0,1,5.73,3,12.22,12.22,0,0,1,4.22,7.48,9.61,9.61,0,0,1,.12,1.76,9.16,9.16,0,0,1-.2,2.17,12,12,0,0,1-5.29,7.45,28,28,0,0,1-7.69,3.51c-1.37.41-2.6.72-4.38,1.1-1.24.26-1.82.39-2.65.61-4.45,1.17-7.67,2.75-9.57,4.71a6.44,6.44,0,0,0-1.93,3.85,9,9,0,0,0,0,1.64,7.92,7.92,0,0,0,1.28,3.45,7.8,7.8,0,0,0,2.09,2.08,15.12,15.12,0,0,0,6.07,2.25c5.55.91,11.7-.31,15.27-3a8.3,8.3,0,0,0,1.07-1,7.42,7.42,0,0,0,1.83-2.79l.06-.18,2.07.67c1.13.36,2.07.67,2.07.68a2.27,2.27,0,0,1-.09.29,12.51,12.51,0,0,1-3.94,5.42c-3.52,2.89-8.89,4.56-14.62,4.56-5.28,0-10-1.43-13.13-4a12,12,0,0,1-3.18-4,11.64,11.64,0,0,1-.83-8.45c1.14-3.79,4.41-6.81,9.68-8.94a42.39,42.39,0,0,1,7.46-2.18c1.51-.32,2.49-.56,3.57-.87,5.27-1.51,8.71-3.69,10-6.32a6.49,6.49,0,0,0,.47-1.34,7.35,7.35,0,0,0-.41-4.27,7.65,7.65,0,0,0-2.52-3.29,12.08,12.08,0,0,0-3.57-1.81,22.52,22.52,0,0,0-9.77-.78,18.58,18.58,0,0,0-7.71,2.68,8.67,8.67,0,0,0-3.46,4,2,2,0,0,0-.1.29s0,0,0,0l-4.12-1.31a2.16,2.16,0,0,1,.22-.69c1.44-3.61,4.74-6.45,9.4-8.11a27,27,0,0,1,7.45-1.46l.56,0Zm-57.81,2h4.35v20.33h22.56v4.23H199.72v18.34H229v4.23H195.37V178.49Zm-40.54,0h4.23l0,10.14,0,10.13,11.25,0,11.25,0v4.23l-11.25,0-11.25,0v18.22l14.66,0,14.66,0v4.23H154.83V178.49Zm227.75,0h4.35V219h8.62c8.17,0,8.66,0,9.51-.23a9,9,0,0,0,4.45-2.7,8.89,8.89,0,0,0,2.34-5.05,9.27,9.27,0,0,0-3.24-8.16,8.85,8.85,0,0,0-3-1.63l-1.11-.39-5.32,0-5.32,0v-4.23l5.61,0c5.39,0,5.65.06,6.55.31a13.68,13.68,0,0,1,7.82,5.48A13.37,13.37,0,0,1,415,215.57a15.16,15.16,0,0,1-4.62,5.45,14.59,14.59,0,0,1-5.93,2.24c-.6.08-4.94.12-11.4.12H382.58V178.49Zm42.89,0h31.38v4.23l-13.54,0-13.55,0v16l9,0,9,0v4.23l-9,0-9,0,0,8,0,8h27.15v4.34H425.47V178.49Zm-285.8,0h4.23v47.13h-4.23V178.49ZM100.5,225.62c9,0,10.06-.1,13.37-1.19a23.8,23.8,0,0,0,16-19.08,28.19,28.19,0,0,0,0-6.62,23.81,23.81,0,0,0-10.1-16.15,24.22,24.22,0,0,0-7.12-3.26c-2.66-.7-2.91-.75-10-.79v4.19c2.07,0,4.19,0,5.22.12a19.27,19.27,0,0,1,17.63,15.51,24.53,24.53,0,0,1,.06,7.11,19.4,19.4,0,0,1-14.89,15.44c-1.82.39-3.85.5-8.69.46l-4.52,0,0-19.16c0-4.82,0-9,0-12.42h0V178.5l-4.25,0v47.14Z" style="fill:url(#a)"/></svg>